<?xml version="1.0" encoding="UTF-8"?> <svg xmlns="http://www.w3.org/2000/svg" viewBox="0 0 464 464"> <circle cx="104" cy="348" fill="#96b841" r="32"></circle> <circle cx="360" cy="348" fill="#96b841" r="32"></circle> <path d="m360 188h-32v64h64z" fill="#96b841"></path> <g fill="#342a1f"> <path d="m430.4 183.2-22.4-44.8c-7.2-13.6-20.8-22.4-36-22.4h-68v-8c0-13.6-10.4-24-24-24h-256c-13.6 0-24 10.4-24 24v208c0 4.8 3.2 8 8 8h56.8c4 18.4 20 32 39.2 32s35.2-13.6 39.2-32h177.6c4 18.4 20 32 39.2 32s35.2-13.6 39.2-32h56.8c4.8 0 8-3.2 8-8v-96c0-2.4-.8-4-2.4-5.6zm-36.8-37.6 23.2 46.4c0 .8.8 1.6 1.6 2.4l29.6 29.6v20h-24c-4.8 0-8 3.2-8 8s3.2 8 8 8h24v16h-24c-1.6 0-2.4 0-3.2.8-13.6-20-35.2-32.8-60.8-32.8-4.8 0-8 3.2-8 8s3.2 8 8 8c28 0 51.2 20.8 55.2 48h-16c-4-18.4-20-32-39.2-32h-56v-144h68c9.6 0 17.6 4.8 21.6 13.6zm-369.6-45.6h256c4.8 0 8 3.2 8 8v40h-24c-4.8 0-8 3.2-8 8s3.2 8 8 8h24v16h-56c-4.8 0-8 3.2-8 8s3.2 8 8 8h56v16h-24c-4.8 0-8 3.2-8 8s3.2 8 8 8h24v48h-120c-4.8 0-8 3.2-8 8s3.2 8 8 8h160c-3.2 4.8-6.4 10.4-7.2 16h-177.6c-4-18.4-20-32-39.2-32s-35.2 13.6-39.2 32h-16c4-27.2 27.2-48 55.2-48 4.8 0 8-3.2 8-8s-3.2-8-8-8c-25.6 0-47.2 12.8-60.8 32.8-.8-.8-1.6-.8-3.2-.8h-24v-168c0-4.8 3.2-8 8-8zm-8 192h20c-1.6 4.8-3.2 10.4-4 16h-16zm88 48c-13.6 0-24-10.4-24-24s10.4-24 24-24 24 10.4 24 24-10.4 24-24 24zm256 0c-13.6 0-24-10.4-24-24s10.4-24 24-24 24 10.4 24 24-10.4 24-24 24zm88-32h-16.8c-.8-5.6-1.6-11.2-4-16h20.8z"></path> <path d="m72 228c2.4 0 4-.8 5.6-2.4l64-64c3.2-3.2 3.2-8 0-11.2s-8-3.2-11.2 0l-64 64c-3.2 3.2-3.2 8 0 11.2 1.6 1.6 3.2 2.4 5.6 2.4z"></path> <path d="m130.4 182.4-32 32c-3.2 3.2-3.2 8 0 11.2 1.6 1.6 4 2.4 5.6 2.4s4-.8 5.6-2.4l32-32c3.2-3.2 3.2-8 0-11.2s-8-3.2-11.2 0z"></path> <path d="m72 196c2.4 0 4-.8 5.6-2.4l32-32c3.2-3.2 3.2-8 0-11.2s-8-3.2-11.2 0l-32 32c-3.2 3.2-3.2 8 0 11.2 1.6 1.6 3.2 2.4 5.6 2.4z"></path> <path d="m328 228h64c2.4 0 5.6-1.6 7.2-4s1.6-5.6 0-8l-32-64c-1.6-2.4-4-4-7.2-4h-32c-4.8 0-8 3.2-8 8v64c0 4.8 3.2 8 8 8zm8-64h19.2l24 48h-43.2z"></path> </g> </svg> 