<?xml version="1.0" encoding="UTF-8"?> <svg xmlns="http://www.w3.org/2000/svg" viewBox="0 0 464 464"> <path d="m264 56-32 32-32-32-160 160h88.8c17.6-16 43.2-32 71.2-32s54.4 16 71.2 32h88.8 64z" fill="#96b841"></path> <g fill="#342a1f"> <path d="m368 312c0-13.6-10.4-24-24-24s-24 10.4-24 24 10.4 24 24 24 24-10.4 24-24zm-24 8c-4.8 0-8-3.2-8-8s3.2-8 8-8 8 3.2 8 8-3.2 8-8 8z"></path> <path d="m424 112h-60.8l-93.6-93.6c-3.2-3.2-8-3.2-11.2 0l-26.4 26.4-26.4-26.4c-3.2-3.2-8-3.2-11.2 0l-93.6 93.6h-60.8c-22.4 0-40 17.6-40 40v256c0 22.4 17.6 40 40 40h384c22.4 0 40-17.6 40-40v-256c0-22.4-17.6-40-40-40zm0 16c13.6 0 24 10.4 24 24 0 12-8.8 22.4-20.8 24l-48-48zm-160-92.8 90.4 90.4 50.4 50.4h-41.6l-120-120zm-64 0 26.4 26.4 114.4 114.4h-66.4c-14.4-12.8-42.4-32-74.4-32-32.8 0-60 19.2-74.4 32h-66.4l50.4-50.4zm48 140.8h-96c12.8-8 29.6-16 48-16s35.2 8 48 16zm-208-48h44.8l-48 48c-12-1.6-20.8-12-20.8-24 0-13.6 10.4-24 24-24zm384 304h-384c-13.6 0-24-10.4-24-24v-224c6.4 4.8 15.2 8 24 8h384c8.8 0 17.6-3.2 24-8v152h-116.8l-24-24 24-24h92.8c4.8 0 8-3.2 8-8s-3.2-8-8-8h-96c-2.4 0-4 .8-5.6 2.4l-32 32c-3.2 3.2-3.2 8 0 11.2l32 32c1.6 1.6 3.2 2.4 5.6 2.4h120v56c0 13.6-10.4 24-24 24z"></path> <path d="m194.4 274.4-64 64c-3.2 3.2-3.2 8 0 11.2 1.6 1.6 4 2.4 5.6 2.4s4-.8 5.6-2.4l64-64c3.2-3.2 3.2-8 0-11.2s-8-3.2-11.2 0z"></path> <path d="m136 320c2.4 0 4-.8 5.6-2.4l32-32c3.2-3.2 3.2-8 0-11.2s-8-3.2-11.2 0l-32 32c-3.2 3.2-3.2 8 0 11.2 1.6 1.6 3.2 2.4 5.6 2.4z"></path> <path d="m194.4 306.4-32 32c-3.2 3.2-3.2 8 0 11.2 1.6 1.6 4 2.4 5.6 2.4s4-.8 5.6-2.4l32-32c3.2-3.2 3.2-8 0-11.2s-8-3.2-11.2 0z"></path> <path d="m72 400c-7.2 0-13.6-2.4-17.6-6.4-6.4-6.4-6.4-17.6-6.4-17.6 0-4-3.2-8-8-8-4 0-8 3.2-8 8 0 .8 0 17.6 11.2 29.6 7.2 6.4 16.8 10.4 28.8 10.4 4.8 0 8-3.2 8-8s-3.2-8-8-8z"></path> </g> </svg> 