<svg xmlns="http://www.w3.org/2000/svg" viewBox="0 0 233.6 251.7">
  <g>
    <path d="M116.9,186.6c-34.2,0-62-27.8-62-62c0-34.2,27.8-62,62-62s62,27.8,62,62C178.9,158.8,151.1,186.6,116.9,186.6z M116.9,69.2
      c-30.5,0-55.4,24.9-55.4,55.4c0,30.5,24.9,55.4,55.4,55.4c30.5,0,55.4-24.9,55.4-55.4C172.3,94,147.4,69.2,116.9,69.2z"></path>
  </g>
  <path fill='#fab308' d="M183.9,124.6c0,28-17.2,52-41.6,62l2.9,7.4c27.3-11.2,46.6-38.1,46.6-69.4c0-9.3-1.7-18.3-4.9-26.5l-7.6,2.5
    C182.3,108,183.9,116.1,183.9,124.6z"></path>
  <g>
    <g fill='#fab308'>
      <path d="M67.3,196.8c-1.9-1.3-3.8-2.7-5.6-4.2l4.2-5.2c1.7,1.3,3.4,2.6,5.1,3.8L67.3,196.8z"></path>
      <path d="M57.5,189c-1.7-1.6-3.3-3.2-4.9-4.9l4.9-4.5c1.4,1.6,3,3.1,4.5,4.5L57.5,189z"></path>
      <path d="M49,179.9c-1.5-1.8-2.9-3.7-4.2-5.6l5.5-3.8c1.2,1.8,2.5,3.5,3.9,5.1L49,179.9z"></path>
      <path d="M41.8,169.7c-1.2-2-2.3-4-3.3-6.1l5.9-3c0.9,1.9,2,3.8,3.1,5.6L41.8,169.7z"></path>
      <path d="M36.1,158.5c-0.9-2.1-1.7-4.3-2.4-6.5l6.3-2.1c0.7,2,1.4,4,2.2,6L36.1,158.5z"></path>
      <path d="M32.1,146.7c-0.6-2.2-1.1-4.5-1.5-6.8l6.5-1.2c0.4,2.1,0.8,4.2,1.4,6.3L32.1,146.7z"></path>
      <path d="M203.5,137.3l-6.6-1c0.3-2.1,0.5-4.2,0.7-6.4l6.6,0.4C204.1,132.7,203.8,135,203.5,137.3z"></path>
      <path d="M29.8,134.4c-0.2-2.2-0.4-4.5-0.5-6.8l6.6-0.4l0,0.2c0.1,2,0.2,4.2,0.5,6.2L29.8,134.4z"></path>
      <path d="M203.8,124.2h-5.5V124c0-1.8-0.1-3.5-0.2-5.3l5.4-0.4c0.1,1.9,0.2,3.8,0.2,5.7V124.2z"></path>
      <path d="M197.9,111.8c-0.2-1.4-0.5-2.8-0.8-4.2l4.3-1c0.3,1.5,0.6,3.1,0.8,4.6L197.9,111.8z"></path>
      <path d="M195.7,99.5c-0.3-1-0.6-1.9-1-2.8l2.9-1.1c0.4,1,0.7,2,1,3.1L195.7,99.5z"></path>
    </g>
    <g>
      <path d="M54.9,62.8c-14.6,14.6-24,34.4-25.4,56.3l6.6,0.1c1.3-20.1,10-38.2,23.3-51.7L54.9,62.8z"></path>
      <path d="M195.8,142.1c-8,36.2-40.4,63.4-79,63.4c-14.4,0-27.9-3.8-39.6-10.4l-3.1,5.9c12.6,7.1,27.2,11.2,42.7,11.2
        c41.8,0,76.8-29.4,85.5-68.6L195.8,142.1z"></path>
    </g>
  </g>
  <path stroke='#b8b8b8' fill='none' d="M216.5,125.8c0-15.2-3.4-29.6-9.5-42.5l7-3.3c-17.2-36.4-54.3-61.7-97.2-61.7c-4.8,0-9.6,0.3-14.3,0.9l1,7.6
    c-48.8,6.5-86.5,48.3-86.5,98.8c0,15.2,3.4,29.6,9.5,42.5l-7,3.3c17.2,36.4,54.3,61.7,97.2,61.7c4.8,0,9.6-0.3,14.3-0.9l-1-7.6
    C178.8,218.2,216.5,176.4,216.5,125.8z"></path>
</svg>