<svg id="_11.svg" data-name="11.svg" xmlns="http://www.w3.org/2000/svg" width="100.31" height="100" viewBox="0 0 100.31 100">
  <defs>
    <style>
      .cls-1 {
        fill: #ffd800;
      }

      .cls-2 {
        fill-rule: evenodd;
      }
    </style>
  </defs>
  <ellipse id="Ellipse_5_copy_2" data-name="Ellipse 5 copy 2" class="cls-1" cx="50.155" cy="50" rx="50.155" ry="50"/>
  <path id="Ellipse_6_copy_2" data-name="Ellipse 6 copy 2" class="cls-2" d="M1227.55,424.632l-7.06-2.812a1.407,1.407,0,1,0-1.05,2.611l6.17,2.459v20.678l-8.47-4.218V431.562a1.41,1.41,0,0,0-2.82,0V443.4l-7.06,4.017v-6.013a1.415,1.415,0,0,0-2.83,0v6.013l-7.05-4.017v-11.84a1.415,1.415,0,0,0-2.83,0V443.35l-8.47,4.218V426.89l6.17-2.459a1.4,1.4,0,0,0,.79-1.827,1.419,1.419,0,0,0-1.84-.784l-7.05,2.812a1.4,1.4,0,0,0-.89,1.306v23.905a1.4,1.4,0,0,0,.67,1.2,1.373,1.373,0,0,0,.74.21,1.4,1.4,0,0,0,.63-0.148l10.62-5.288,9.21,5.245c0.01,0,.01,0,0.01,0h0l0.01,0a0.855,0.855,0,0,0,.15.062,1.545,1.545,0,0,0,.18.077,1.562,1.562,0,0,0,.37.046,1.481,1.481,0,0,0,.36-0.046c0.06-.017.12-0.051,0.19-0.077a1.358,1.358,0,0,0,.15-0.062v0h0a0.017,0.017,0,0,0,.01,0l9.21-5.245,10.62,5.288a1.433,1.433,0,0,0,.63.148,1.373,1.373,0,0,0,.74-0.21,1.4,1.4,0,0,0,.67-1.2V425.938A1.408,1.408,0,0,0,1227.55,424.632Zm-21.7,12.555a1.413,1.413,0,0,0,1.12-.55c1.04-1.354,10.17-13.39,10.17-19.136a11.3,11.3,0,0,0-22.59,0c0,5.746,9.13,17.782,10.18,19.136A1.4,1.4,0,0,0,1205.85,437.187Zm0-28.124a8.464,8.464,0,0,1,8.47,8.438c0,3.579-5.37,11.674-8.47,15.926-3.11-4.252-8.47-12.347-8.47-15.926A8.464,8.464,0,0,1,1205.85,409.063Zm5.64,8.438a5.645,5.645,0,1,0-5.64,5.625A5.639,5.639,0,0,0,1211.49,417.5Zm-8.47,0a2.825,2.825,0,1,1,2.83,2.812A2.825,2.825,0,0,1,1203.02,417.5Z" transform="translate(-1155.69 -380)"/>
</svg>
