<svg xmlns="http://www.w3.org/2000/svg" width="59" height="45" viewBox="0 0 59 45"><path fill="#FFF" fill-rule="evenodd" d="M58.738 26.999c-.373 1.86-.72 3.726-1.126 5.579-.375 1.715-.924 3.383-1.555 5.022-.82 2.128-2.258 3.507-4.515 4.154-14.884 4.268-29.773 3.987-44.676.146-1.969-.507-3.003-2.001-3.697-3.77-3.256-8.287-3.803-16.75-1.6-25.385.095-.37.271-.735.28-1.106.03-1.308 1.178-1.91 2.49-1.598 1.089.26 1.504 1.25 1.1 2.577A35.507 35.507 0 0 0 3.937 24.83c.204 4.12 1.155 8.067 2.682 11.89.281.704.747 1.091 1.47 1.29 14.133 3.88 28.265 3.916 42.41.057 1.182-.323 1.626-1.18 1.986-2.155 3.178-8.61 3.118-17.23.21-25.912-.578-1.727-1.491-2.548-3.249-2.994-13.853-3.517-27.65-3.411-41.42.4-.842.233-1.586.271-2.17-.487-.799-1.038-.335-2.24 1.131-2.717 2.25-.732 4.559-1.254 6.876-1.73C26.764-.174 39.515.503 52.143 4.149c1.998.577 3.127 1.97 3.832 3.786 1.275 3.284 2.155 6.674 2.554 10.182.025.224.014.463.209.632v8.251zm-23.48-4.128l-9.436-5.8v11.612c3.164-1.95 6.2-3.82 9.436-5.812zM23.813 33.888c-1.712-.663-1.782-1.814-1.77-3.117.047-5.497.019-10.995.023-16.492.001-2.016 1.515-2.909 3.225-1.851 4.672 2.89 9.327 5.805 13.974 8.734 1.572.991 1.558 2.44-.026 3.44-4.743 2.99-9.504 5.952-14.25 8.94-.449.282-.9.387-1.176.346z"/></svg>