<svg xmlns="http://www.w3.org/2000/svg" viewBox="0 0 246.59 232.07">
  <title>bg-pattern_2</title>
  <g>
    <rect width="246.59" height="232.07" fill="#1e1d27"/>
    <path d="M108.34,35.09a5.08,5.08,0,0,1-5.08,5.08h-1.13a13.86,13.86,0,0,0,.57-1.33h.56A3.75,3.75,0,0,0,107,35.09V33a.66.66,0,0,0-.67-.67h-2.79V31h4.79ZM103.55,34v-.37h2.13v1.43a2.42,2.42,0,0,1-2.42,2.42h-.15A14,14,0,0,0,103.55,34Zm.19,12.24a3.06,3.06,0,0,1-3,2.39H80a3.07,3.07,0,0,1-3-2.39h26.73ZM109,29.67h-5.45V28.26a.67.67,0,0,0-.66-.67H88.51a.67.67,0,1,0,0,1.33h13.7V34A12.67,12.67,0,0,1,96,44.93H83.19A12.67,12.67,0,0,1,76.94,34v-5.1H81.4a.67.67,0,1,0,0-1.33H76.27a.67.67,0,0,0-.67.67V34a13.94,13.94,0,0,0,5.25,10.91H76.27a.67.67,0,0,0-.67.67A4.4,4.4,0,0,0,80,50h20.75a4.39,4.39,0,0,0,4.39-4.39.67.67,0,0,0-.67-.67H98.3a14,14,0,0,0,3.08-3.44h1.88a6.41,6.41,0,0,0,6.41-6.41V30.33A.67.67,0,0,0,109,29.67Z" fill="#181720" fill-rule="evenodd"/>
    <path d="M90.21,19.61l-.35-.43a1.73,1.73,0,0,1,0-2.17.67.67,0,1,0-1-.83,3.06,3.06,0,0,0,0,3.82l.35.43a2.27,2.27,0,0,1,0,2.83l-.35.45a.67.67,0,1,0,1,.83l.35-.45a3.59,3.59,0,0,0,0-4.49" fill="#181720" fill-rule="evenodd"/>
    <path d="M93.9,21.11l-.35-.43a1.73,1.73,0,0,1,0-2.17.67.67,0,0,0-1-.83,3.06,3.06,0,0,0,0,3.82l.35.43a2.27,2.27,0,0,1,0,2.83l-.35.45a.67.67,0,0,0,1,.83l.35-.45a3.59,3.59,0,0,0,0-4.49" fill="#181720" fill-rule="evenodd"/>
    <path d="M86.53,21.11l-.35-.43a1.73,1.73,0,0,1,0-2.17.67.67,0,0,0-1-.83,3.06,3.06,0,0,0,0,3.82l.35.43a2.27,2.27,0,0,1,0,2.83l-.35.45a.67.67,0,0,0,1,.83l.35-.45a3.59,3.59,0,0,0,0-4.49" fill="#181720" fill-rule="evenodd"/>
    <path d="M85.61,27.79a.67.67,0,1,0,.19.47.67.67,0,0,0-.19-.47" fill="#181720" fill-rule="evenodd"/>
    <path d="M99.69,33.36A.67.67,0,0,0,99,34a9.53,9.53,0,0,1-2.75,6.66.67.67,0,1,0,.95.94A10.87,10.87,0,0,0,100.35,34a.67.67,0,0,0-.67-.67" fill="#181720" fill-rule="evenodd"/>
    <path d="M95.16,42.49a.67.67,0,0,0-.91-.25h0a.67.67,0,1,0,.65,1.16h0a.66.66,0,0,0,.25-.91" fill="#181720" fill-rule="evenodd"/>
    <path d="M97.75,103.5H87.53A10.8,10.8,0,0,1,76.76,93.28h31.75A10.8,10.8,0,0,1,97.75,103.5M109.1,92.15H76.18a.57.57,0,0,0-.57.57,11.93,11.93,0,0,0,11.92,11.92H97.75a11.93,11.93,0,0,0,11.92-11.92A.57.57,0,0,0,109.1,92.15Z" fill="#181720" fill-rule="evenodd"/>
    <path d="M103.09,79.33a1.13,1.13,0,0,1-.8.33h-1.7a.57.57,0,0,0,0,1.14h.06A1.13,1.13,0,0,1,101.72,82a1.21,1.21,0,0,1-1.23,1.1H97.75a.57.57,0,0,0,0,1.14,1.13,1.13,0,1,1,0,2.27H88.66V78.61a1.21,1.21,0,0,1,1.08-1.22h.06a1.14,1.14,0,0,1,1.13,1.13h0a.57.57,0,0,0,.57.57h0a.57.57,0,0,0,.57-.57h0V75.77a1.21,1.21,0,0,1,1.07-1.22h.06a1.14,1.14,0,0,1,1.13,1.13h0a.57.57,0,0,0,.57.57h0a.57.57,0,0,0,.57-.57h0v-2.9a1.13,1.13,0,0,1,1.17-1.07,1.22,1.22,0,0,1,1.1,1.24v.47a.57.57,0,0,0,1,.4l1.54-1.56.13-.12a1.85,1.85,0,0,1,2.59.24,1.91,1.91,0,0,1-.17,2.55l-1.49,1.49a.57.57,0,0,0,.4,1h.5a1.21,1.21,0,0,1,1.2,1.07v.06a1.13,1.13,0,0,1-.33.8m1.47-.8s0-.08,0-.15a2.36,2.36,0,0,0-1.59-2l.64-.64a3,3,0,0,0,.25-4.07,3,3,0,0,0-4.2-.41l-.21.19-.7.71a2.37,2.37,0,0,0-2-1.58,2.27,2.27,0,0,0-2.39,2.15s0,.08,0,.12v.87a2.25,2.25,0,0,0-1.13-.31h-.15a2.35,2.35,0,0,0-2.13,2.36v.77a2.26,2.26,0,0,0-1.13-.3h-.15a2.35,2.35,0,0,0-2.13,2.36V87a.57.57,0,0,0,.57.57h9.65a2.27,2.27,0,0,0,2-3.4h.77a2.35,2.35,0,0,0,2.38-2.15,2.25,2.25,0,0,0-.31-1.27,2.27,2.27,0,0,0,2-2.25Z" fill="#181720" fill-rule="evenodd"/>
    <rect x="81.4" y="81.93" width="22.47" height="1.14" transform="translate(-31.2 89.67) rotate(-45)" fill="#181720"/>
    <rect x="96.61" y="75.12" width="1.14" height="2.84" fill="#181720"/>
    <rect x="93.2" y="77.96" width="1.13" height="3.41" fill="#181720"/>
    <rect x="89.8" y="80.79" width="1.14" height="3.97" fill="#181720"/>
    <rect x="97.18" y="77.39" width="2.84" height="1.14" fill="#181720"/>
    <rect x="93.77" y="80.79" width="3.41" height="1.14" fill="#181720"/>
    <rect x="90.37" y="84.2" width="3.97" height="1.14" fill="#181720"/>
    <path d="M84.91,75.81l-.73.57a.57.57,0,0,0-.22.45v.57a1.7,1.7,0,0,1-3.41,0v-.57a.57.57,0,0,0-.22-.45l-.73-.57-.07,0a1.44,1.44,0,0,1-.29-.22,1.48,1.48,0,0,1,2-2.12l.06.05.57.41a.57.57,0,0,0,.67,0l.6-.45a1.47,1.47,0,0,1,1.71,2.39M86.2,73.2h0a2.62,2.62,0,0,0-3.63-.72l-.12.08-.2.16-.2-.14a2.61,2.61,0,0,0-3.59,3.79,2.58,2.58,0,0,0,.48.37l.48.37v.29a2.84,2.84,0,1,0,5.68,0V77.1l.5-.39A2.61,2.61,0,0,0,86.2,73.2Z" fill="#181720" fill-rule="evenodd"/>
    <rect x="88.1" y="71.14" width="1.14" height="1.14" fill="#181720"/>
    <rect x="91.5" y="89.31" width="1.14" height="1.13" fill="#181720"/>
    <path d="M106.26,74v1.14a1.14,1.14,0,1,1,0,2.27v1.14a2.27,2.27,0,0,0,0-4.54" fill="#181720" fill-rule="evenodd"/>
    <rect x="76.74" y="79.1" width="1.14" height="1.14" fill="#181720"/>
    <rect x="75.61" y="76.83" width="1.14" height="1.14" fill="#181720"/>
    <path d="M97.75,88.74A2.27,2.27,0,0,0,95.48,91h1.14a1.14,1.14,0,0,1,2.27,0H100a2.27,2.27,0,0,0-2.27-2.27" fill="#181720" fill-rule="evenodd"/>
    <path d="M82.42,87H77.88a1.14,1.14,0,1,1,0-2.27h.57A.57.57,0,0,0,79,84.2a1.14,1.14,0,0,1,2.27,0,.57.57,0,0,0,.57.57h.57a1.14,1.14,0,0,1,0,2.27m0-3.41h-.07a2.27,2.27,0,0,0-4.4,0h-.07a2.27,2.27,0,1,0,0,4.54h4.54a2.27,2.27,0,0,0,0-4.54Z" fill="#181720" fill-rule="evenodd"/>
    <path d="M80.72,89.31H79.58V88.17h1.14ZM81.29,87H79a.57.57,0,0,0-.57.57v2.27a.57.57,0,0,0,.57.57h2.27a.57.57,0,0,0,.57-.57V87.61A.57.57,0,0,0,81.29,87Z" fill="#181720" fill-rule="evenodd"/>
    <path d="M105.69,87.61a.57.57,0,1,1,.57-.57.57.57,0,0,1-.57.57m0-2.27a1.7,1.7,0,1,0,1.7,1.7A1.71,1.71,0,0,0,105.69,85.34Z" fill="#181720" fill-rule="evenodd"/>
    <path d="M105.69,89.88A2.84,2.84,0,1,1,108.53,87a2.84,2.84,0,0,1-2.84,2.84m0-6.81a4,4,0,1,0,4,4A4,4,0,0,0,105.69,83.07Z" fill="#181720" fill-rule="evenodd"/>
    <path d="M42.09,43.57a2.45,2.45,0,0,1,1-3.07v4.2A2.44,2.44,0,0,1,42.09,43.57Zm-3-19.51a2.45,2.45,0,0,1-4.65-1.5,28.54,28.54,0,0,1,3.26-.89l.91-.18a2.41,2.41,0,0,1,.45.7A2.43,2.43,0,0,1,39.08,24.05Zm-23,6.42a.71.71,0,0,1,.13-.55A34.42,34.42,0,0,1,42.33,16.15h0a.72.72,0,0,1,.72.72v2.74a30.88,30.88,0,0,0-3.4.27l-1,.14a30.73,30.73,0,0,0-5.07,1.29,31.91,31.91,0,0,0-3.41,1.43A29.43,29.43,0,0,0,27,24.59a32.06,32.06,0,0,0-3,2.19,31.26,31.26,0,0,0-2.71,2.55,30.41,30.41,0,0,0-2.34,2.8l-.27.37-2.29-1.56A.71.71,0,0,1,16.09,30.47ZM32.18,41.7a2.42,2.42,0,0,1,1.26-1.23,2.45,2.45,0,0,1,2.73,4l-2.63-1.8ZM43.84,15.32a2.12,2.12,0,0,0-1.57-.59A35.84,35.84,0,0,0,15.08,29.07a2.14,2.14,0,0,0,.51,3.05l2.87,2h0l1.7,1.16v1.49a.71.71,0,0,0,1.42,0V34.86a.71.71,0,0,0-.31-.59l-1.42-1a30,30,0,0,1,2-2.51,28.36,28.36,0,0,1,2.36-2.34,29.51,29.51,0,0,1,5.31-3.75,28.35,28.35,0,0,1,3-1.44l.39-.16a3.87,3.87,0,1,0,7.43-1.48,3.82,3.82,0,0,0-.18-.37q1.44-.18,2.9-.21v17.9a3.87,3.87,0,0,0,0,7.32v2.88l-3.35-2.28a.71.71,0,0,0-1.11.59v1.65a.65.65,0,1,1-1.31,0V45.58a.71.71,0,0,0,0-.25A3.87,3.87,0,1,0,31,40.9l-1-.66a.71.71,0,0,0-1.11.59v2.74a.65.65,0,0,1-1.31,0V39a.71.71,0,0,0-.31-.59L24,36.14a.71.71,0,0,0-1.11.59v9.52a.65.65,0,1,1-1.31,0V42.42a.71.71,0,0,0-1.42,0v3.82a2.08,2.08,0,1,0,4.16,0V38.07l1.86,1.27v4.22a2.08,2.08,0,0,0,4.16,0V42.18l.59.4h0l4.88,3.32.08.05v3.14a2.08,2.08,0,0,0,4.16,0v-.3l3.35,2.28a.72.72,0,0,0,1.11-.59V16.87A2.12,2.12,0,0,0,43.84,15.32Z" fill="#181720" fill-rule="evenodd"/>
    <path d="M25.58,31.28a2.45,2.45,0,1,1,0,1.87A2.43,2.43,0,0,1,25.58,31.28Zm.84,4.5a3.87,3.87,0,1,0-2.12-2.07A3.86,3.86,0,0,0,26.42,35.78Z" fill="#181720" fill-rule="evenodd"/>
    <path d="M36.13,32.74a2.45,2.45,0,1,1,0,1.87A2.43,2.43,0,0,1,36.13,32.74Zm.84,4.5a3.87,3.87,0,1,0-2.12-2.07A3.87,3.87,0,0,0,37,37.24Z" fill="#181720" fill-rule="evenodd"/>
    <path d="M20.87,40.29a.71.71,0,1,0-.7-.57A.72.72,0,0,0,20.87,40.29Z" fill="#181720" fill-rule="evenodd"/>
    <path d="M228.82,142.57a24.11,24.11,0,0,1-22.23,14.73,3.64,3.64,0,1,1,0-7.29,16.85,16.85,0,0,0,16.84-16.84,3.64,3.64,0,1,1,7.29,0,24,24,0,0,1-1.9,9.39M200.69,155s0,0,0-.06a1.44,1.44,0,0,0-.37-1c-.11-.14-.15-.18-.15-.33s0-.19.15-.33a1.44,1.44,0,0,0,.37-1s0,0,0-.06l1.26.76a4.57,4.57,0,0,0,0,1.21Zm25-27.75h.06a1.44,1.44,0,0,0,1-.37c.14-.11.18-.15.33-.15s.19,0,.33.15a1.44,1.44,0,0,0,1,.37h.06l-.76,1.26a4.56,4.56,0,0,0-1.21,0Zm3,1.52,1.39-2.29a.52.52,0,0,0-.45-.79,1.44,1.44,0,0,0-1,.37c-.14.11-.18.15-.33.15s-.19,0-.33-.15a1.46,1.46,0,0,0-2,0c-.14.11-.18.15-.33.15s-.19,0-.33-.15a1.44,1.44,0,0,0-1-.37.52.52,0,0,0-.45.79l1.39,2.29a4.69,4.69,0,0,0-3,4.38A15.81,15.81,0,0,1,206.59,149a4.69,4.69,0,0,0-4.38,3l-2.29-1.39a.52.52,0,0,0-.79.45,1.44,1.44,0,0,0,.37,1c.11.14.15.18.15.33s0,.19-.15.33a1.46,1.46,0,0,0,0,2c.11.14.15.18.15.33s0,.19-.15.33a1.44,1.44,0,0,0-.37,1,.52.52,0,0,0,.79.45l2.29-1.39a4.69,4.69,0,0,0,4.38,3,25.15,25.15,0,0,0,25.17-25.17A4.69,4.69,0,0,0,228.73,128.79Z" fill="#181720" fill-rule="evenodd"/>
    <path d="M228.53,133.73a.52.52,0,1,0,.52.52.52.52,0,0,0-.52-.52" fill="#181720" fill-rule="evenodd"/>
    <path d="M205.58,153.13a.52.52,0,1,0,.52.52.52.52,0,0,0-.52-.52" fill="#181720" fill-rule="evenodd"/>
    <path d="M207.67,154.59a.52.52,0,1,0,.52.52.52.52,0,0,0-.52-.52" fill="#181720" fill-rule="evenodd"/>
    <path d="M218.17,20.9a1.84,1.84,0,1,1-1.77,1.84,1.81,1.81,0,0,1,1.77-1.84m0,4.94a3.11,3.11,0,1,0-3-3.11A3.08,3.08,0,0,0,218.17,25.85Z" fill="#181720" fill-rule="evenodd"/>
    <path d="M225.63,49.11a1.81,1.81,0,0,1-1.77,1.84h-3.47a.64.64,0,0,0,0,1.27h3L223,53.3a.17.17,0,0,1-.15.12H208a.17.17,0,0,1-.15-.12l-.35-1.08h10.61a.64.64,0,1,0,0-1.27H207a1.81,1.81,0,0,1-1.77-1.84V25.31a6.11,6.11,0,0,1,.77-3l2.18-3.92h14.48l2.18,3.92a6.11,6.11,0,0,1,.76,3ZM207.75,16.36a.57.57,0,0,1,.54-.4h14.3a.57.57,0,0,1,.54.4.62.62,0,0,1-.09.56.55.55,0,0,1-.45.23h-14.3a.55.55,0,0,1-.45-.23A.62.62,0,0,1,207.75,16.36ZM226,21.73l-2.12-3.81a1.89,1.89,0,0,0,.48-1.95,1.84,1.84,0,0,0-1.75-1.29H219.3l1.79-2.45a.64.64,0,1,0-1-.75l-2.34,3.2h-9.43A1.84,1.84,0,0,0,206.54,16a1.9,1.9,0,0,0,.27,1.7,1.88,1.88,0,0,0,.21.25l-2.12,3.81a7.39,7.39,0,0,0-.93,3.58v23.8a3.11,3.11,0,0,0,2.13,3l.52,1.61a1.44,1.44,0,0,0,1.37,1h14.88a1.44,1.44,0,0,0,1.37-1l.52-1.61a3.11,3.11,0,0,0,2.13-3V25.31A7.39,7.39,0,0,0,226,21.73Z" fill="#181720" fill-rule="evenodd"/>
    <path d="M216.56,38l-1.11-4.24,4.11,1.13a5.54,5.54,0,0,1-1.21,1.89,5.35,5.35,0,0,1-1.8,1.22m-2,.39a5.24,5.24,0,0,1-3.34-1.2l3-3.09,1.1,4.23A5.3,5.3,0,0,1,214.56,38.42Zm4.23-9a5.67,5.67,0,0,1,1.09,4.23l-4.11-1.13ZM221,34.69v-.11a6.94,6.94,0,0,0-1.73-6.51l0,0a.63.63,0,0,0-.44-.18h0a.64.64,0,0,0-.43.19h0l-8.51,8.74h0a.63.63,0,0,0-.16.43h0a.64.64,0,0,0,0,.13h0a.63.63,0,0,0,.16.29,6.54,6.54,0,0,0,9.42,0A6.81,6.81,0,0,0,221,34.69Z" fill="#181720" fill-rule="evenodd"/>
    <path d="M211.75,47.65a1.84,1.84,0,1,1,1.77-1.84,1.81,1.81,0,0,1-1.77,1.84m0-4.94a3.11,3.11,0,1,0,3,3.11A3.08,3.08,0,0,0,211.75,42.71Z" fill="#181720" fill-rule="evenodd"/>
    <path d="M209.18,27.68a1,1,0,1,1,1,1,1,1,0,0,1-1-1m3.21,0A2.24,2.24,0,1,0,210.15,30,2.27,2.27,0,0,0,212.39,27.68Z" fill="#181720" fill-rule="evenodd"/>
    <path d="M221.37,43.53a1,1,0,1,1,1-1,1,1,0,0,1-1,1m0-3.3a2.29,2.29,0,1,0,2.24,2.29A2.27,2.27,0,0,0,221.37,40.23Z" fill="#181720" fill-rule="evenodd"/>
    <path d="M217.62,74.23h0Zm-2.18,6.69h.08a6.12,6.12,0,0,1,4.66,4.2,3.05,3.05,0,0,0,.36-1.55,3.21,3.21,0,0,0-1.39-2.28.91.91,0,0,1-.32-.93.92.92,0,0,1,.71-.7c1.38-.29,3.59-1,4.47-2.74-6.52,2.93-7,2.41-7.29,2.16a.55.55,0,0,1-.15-.51l1-4.34h-1.1l-1,4a.56.56,0,0,1-.68.41,12.12,12.12,0,0,1-5.2-2.94,7,7,0,0,0,2.28,3.17.93.93,0,0,1-.33,1.6,3.09,3.09,0,0,0-2,1.51,3,3,0,0,0-.08,2A7.18,7.18,0,0,1,215.44,80.92ZM219.9,87a.56.56,0,0,1-.55-.49A5,5,0,0,0,215.4,82a6.23,6.23,0,0,0-5.57,3.56.56.56,0,0,1-.51.34h0a.56.56,0,0,1-.51-.33,4.87,4.87,0,0,1-.3-4.05,4,4,0,0,1,2.37-2c-3.15-2.79-2.69-5.83-2.67-6a.56.56,0,0,1,1-.16c1.2,2.41,4,3.6,5.23,4l.88-3.52a1,1,0,0,1,1-.79h1.24a1,1,0,0,1,1,1.27l-.83,3.74a53,53,0,0,0,6.87-2.73.56.56,0,0,1,.79.58c-.44,3.08-3.62,4.27-5.32,4.69a4.1,4.1,0,0,1,1.51,2.84,4.87,4.87,0,0,1-1.36,3.37.56.56,0,0,1-.39.16Z" fill="#181720" fill-rule="evenodd"/>
    <path d="M210.62,79.31c-6.83.27-10.78,1.75-10.78,8.3,0,9.24,7.84,13.37,15.6,13.37S231,96.84,231,87.6c0-5.08-2.33-7.43-8-8.1a9.91,9.91,0,0,1-2.87,1.17,4.1,4.1,0,0,1,1.51,2.84,4.87,4.87,0,0,1-1.36,3.37.56.56,0,0,1-.95-.32A5,5,0,0,0,215.4,82a6.23,6.23,0,0,0-5.57,3.56.56.56,0,0,1-.51.34h0a.56.56,0,0,1-.51-.33,4.87,4.87,0,0,1-.3-4.05,4,4,0,0,1,2.37-2Zm4.82,22.78c-10,0-16.72-5.82-16.72-14.49,0-8.3,6.24-9.22,12.1-9.42a.51.51,0,0,1,.41.16c.22.22.41.39.6.55a.93.93,0,0,1-.33,1.6,3.09,3.09,0,0,0-2,1.51,3,3,0,0,0-.08,2,7.17,7.17,0,0,1,6-3.15h.08a6.12,6.12,0,0,1,4.66,4.2,3,3,0,0,0,.36-1.55,3.21,3.21,0,0,0-1.39-2.28.91.91,0,0,1-.32-.93.92.92,0,0,1,.71-.7,9.1,9.1,0,0,0,3-1.2.55.55,0,0,1,.37-.09c4.56.49,9.23,2,9.23,9.23C232.16,96.27,225.44,102.09,215.44,102.09Z" fill="#181720" fill-rule="evenodd"/>
    <path d="M215.44,99.31a.56.56,0,1,1,0-1.11c2.06,0,9-.42,11.76-5.83a.56.56,0,0,1,1,.51C226.15,96.9,221.38,99.31,215.44,99.31Z" fill="#181720" fill-rule="evenodd"/>
    <path d="M228.51,90.95h-.13a.56.56,0,0,1-.41-.67,11.62,11.62,0,0,0,.29-2.66.56.56,0,1,1,1.11,0,12.72,12.72,0,0,1-.32,2.91A.56.56,0,0,1,228.51,90.95Z" fill="#181720" fill-rule="evenodd"/>
    <path d="M98.92,208.15c-1.07-.53-1.64-1.28-1.51-2a.72.72,0,0,1,.51-.64c.41-.05.59.12.94.48a1.57,1.57,0,0,0,1.84.59,1.14,1.14,0,0,0,.66-1.16c0-1.06-1.08-3.23-4.93-4.62a.63.63,0,0,0-.51,0c-.22.12-.34.18-.91,1.9-.31.93-.64,2-.88,2.94a11.22,11.22,0,0,0-.34,3c0,.57,0,1.22-.09,2a8.87,8.87,0,0,1-.58,2.86l0,.08c-.74,1.83-2.19,2.35-4.31,1.54s-2.78-2.26-2-4.1a.39.39,0,0,0,0-.09,8.89,8.89,0,0,1,1.57-2.47c.5-.63.94-1.11,1.33-1.53a11.23,11.23,0,0,0,1.83-2.39c.46-.83,1-1.85,1.4-2.73.78-1.64.73-1.77.66-2a.64.64,0,0,0-.34-.38c-3.74-1.66-6-.83-6.75-.08a1.14,1.14,0,0,0-.32,1.29,1.57,1.57,0,0,0,1.74.85c.5,0,.75,0,1,.3a.72.72,0,0,1-.07.81c-.42.61-1.35.76-2.49.41a4,4,0,0,1-2.41-5.57,8.29,8.29,0,0,1,4.94-4.58,13.23,13.23,0,0,1,15.27,6.14,8.29,8.29,0,0,1,.4,6.73,4,4,0,0,1-5.6,2.35m6.74-1.89a9.53,9.53,0,0,0-.43-7.73,13.23,13.23,0,0,0-7-6.25l-.38-.15a13.23,13.23,0,0,0-9.39-.35,9.53,9.53,0,0,0-5.67,5.28,5.25,5.25,0,0,0,3.1,7.18h.08c2.51.78,3.61-.48,3.88-.89a1.91,1.91,0,0,0,0-2.29,2.19,2.19,0,0,0-2-.76c-.32,0-.43,0-.49,0a1.42,1.42,0,0,1,.51-.31c.52-.2,1.94-.54,4.37.42-.31.74-1,2.24-1.79,3.6a10.1,10.1,0,0,1-1.65,2.15c-.4.44-.86.93-1.39,1.6a9.6,9.6,0,0,0-1.79,2.9,4,4,0,0,0,.13,3.59,5.13,5.13,0,0,0,2.39,2l.44.18a5.12,5.12,0,0,0,3.09.22,4,4,0,0,0,2.58-2.5,9.59,9.59,0,0,0,.71-3.33c.08-.85.09-1.52.1-2.12a10.1,10.1,0,0,1,.3-2.7c.4-1.5.91-3.09,1.2-3.84,2.42,1,3.21,2.21,3.44,2.72a1.41,1.41,0,0,1,.16.57c-.07,0-.16-.09-.37-.32a2.18,2.18,0,0,0-2-.86,1.91,1.91,0,0,0-1.58,1.66c-.08.49-.16,2.16,2.19,3.33h.08A5.25,5.25,0,0,0,105.66,206.26Z" fill="#181720" fill-rule="evenodd"/>
    <path d="M102.14,140.09a.57.57,0,0,0-.79.81l.83.81a.57.57,0,1,0,.79-.81Z" fill="#181720" fill-rule="evenodd"/>
    <path d="M98,144.15a.57.57,0,0,0-.79.81l.83.81a.57.57,0,1,0,.79-.81Z" fill="#181720" fill-rule="evenodd"/>
    <path d="M98.41,140.5a.57.57,0,0,0-.79.81l.83.81a.57.57,0,1,0,.79-.81Z" fill="#181720" fill-rule="evenodd"/>
    <path d="M94.68,147.39a.57.57,0,0,0-.79.81l.83.81a.57.57,0,1,0,.79-.81Z" fill="#181720" fill-rule="evenodd"/>
    <path d="M90.54,151.45a.57.57,0,1,0-.79.81l.83.81a.57.57,0,1,0,.79-.81Z" fill="#181720" fill-rule="evenodd"/>
    <path d="M91,147.8a.57.57,0,0,0-.79.81l.83.81a.57.57,0,1,0,.79-.81Z" fill="#181720" fill-rule="evenodd"/>
    <path d="M108.16,138.26,105,136.43a2.82,2.82,0,0,0-.35-3.64,2.91,2.91,0,0,0-1.79-.82,3.11,3.11,0,0,0-.91-1.81,3.23,3.23,0,0,0-3.6-.63l-1.65-2.69a2.28,2.28,0,0,1,2.88.15,2,2,0,0,1,.52.88.57.57,0,0,0,.79.36,2.52,2.52,0,0,1,2.84.4,2.24,2.24,0,0,1,.67,1.68.57.57,0,0,0,.6.58,2.13,2.13,0,0,1,1.64.59,2,2,0,0,1,.6,1.44,2.37,2.37,0,0,1-.73,1.68l-.1.09a.57.57,0,0,0,.39,1,1.6,1.6,0,0,1,1.29.43,1.49,1.49,0,0,1,.44,1.07,1.72,1.72,0,0,1-.37,1.05m-5.37-5.16a1.78,1.78,0,0,1,1,.5,1.67,1.67,0,0,1,.15,2.25l-.51-.3a11.38,11.38,0,0,0-1.71-.8l.17-.15A3.11,3.11,0,0,0,102.79,133.1Zm3.12,7.39h0l-17.2,16.83L86.08,153A10.05,10.05,0,0,1,85,150.31a12,12,0,0,1,3.5-11.43,13.23,13.23,0,0,1,7.08-3.6,11.53,11.53,0,0,1,4.5.15,10.41,10.41,0,0,1,2.86,1.12l4.43,2.55ZM81.83,152.66a35.94,35.94,0,0,1-4.57-5.13l4.13,2.39a12.84,12.84,0,0,0,2.43,1.16.56.56,0,0,0,.19,0h0a11.13,11.13,0,0,0,1.09,2.45l2.27,3.77A33.11,33.11,0,0,1,81.83,152.66Zm19-18.63c-.09-.25-.19-.49-.3-.74a11.43,11.43,0,0,0-.67-1.26l-.93-1.53a2.13,2.13,0,0,1,2.21.45,2,2,0,0,1-.3,3.08Zm-5-6.43,3.07,5a10.28,10.28,0,0,1,.61,1.14c.06.14.12.29.18.43a12.73,12.73,0,0,0-4.32-.05,14.37,14.37,0,0,0-7.69,3.91,13.23,13.23,0,0,0-4,11.75,12,12,0,0,1-1.72-.87l-5-2.89Zm13,7.72a2.66,2.66,0,0,0-1-.62,3.45,3.45,0,0,0,.51-1.79,3.13,3.13,0,0,0-.94-2.25,3.2,3.2,0,0,0-1.93-.9,3.34,3.34,0,0,0-1-2A3.62,3.62,0,0,0,101,127a3.14,3.14,0,0,0-.6-.81,3.46,3.46,0,0,0-4.81.13l-2.07,2h0l-17.33,17a1.74,1.74,0,0,0-.48.84s0,0,0,.06v0a1.58,1.58,0,0,0,.12,1c.47,1,1.77,2.82,5.27,6.24s5.4,4.69,6.38,5.16a1.66,1.66,0,0,0,.71.16,1.59,1.59,0,0,0,.59-.11,1.72,1.72,0,0,0,.65-.41l17.52-17.15,1.88-1.84a2.93,2.93,0,0,0,.89-2.07A2.61,2.61,0,0,0,108.88,135.32Z" fill="#181720" fill-rule="evenodd"/>
    <path d="M165.24,155.49a5.58,5.58,0,0,1-4.4-.06,6,6,0,0,0,1.4-2.14c1.57-4.09-1.68-9.15-7.23-11.28l-.71-.25h0a5.76,5.76,0,0,1,3.08-3.89c3.43-1.53,8,1.18,10.15,6s1.14,10.06-2.28,11.59m-5.78-.36c-2.33,1.78-6.15,2-9.73.67-5-1.9-7.92-6.3-6.58-9.81,1.22-3.2,5.64-4.61,10.3-3.29a11.11,11.11,0,0,1,1.15.38c5,1.9,7.92,6.3,6.58,9.81A5.05,5.05,0,0,1,159.46,155.12Zm1-27.28a7.83,7.83,0,0,1,4.87-.11,12.07,12.07,0,0,1-4.38,3.86c-1.6.69-2.87.79-3.59.32l1.62-.72a.57.57,0,0,0-.46-1l-1.65.74a1.12,1.12,0,0,1,0-.17A6.66,6.66,0,0,1,160.45,127.85Zm8.11,15.59c-2.37-5.31-7.41-8.25-11.38-6.71l-2.2-3.64,1.19-.53.1-.07a2.6,2.6,0,0,0,1,.66c.85.33,2.16.36,4.14-.5a12.86,12.86,0,0,0,5-4.5,1,1,0,0,0,0-.88,1.06,1.06,0,0,0-.68-.59h0a8.86,8.86,0,0,0-5.73.13c-2.08.9-3.68,2.25-4.17,3.52a2,2,0,0,0-.11,1.19h0l-1.32.59-.42-.7a.57.57,0,1,0-1,.59l3.17,5.23a7.09,7.09,0,0,0-3,4.21v0c-5-1.21-9.72.5-11.1,4.11-1.57,4.09,1.68,9.15,7.23,11.28,3.8,1.46,7.88,1.2,10.53-.62.23.11.46.22.7.31a6.64,6.64,0,0,0,5.15,0C169.7,154.73,171,148.86,168.56,143.44Z" fill="#181720" fill-rule="evenodd"/>
    <path d="M166.74,150.15a.57.57,0,0,0,.77-.49,11.43,11.43,0,0,0-1-5.3.57.57,0,0,0-1,.46,10.28,10.28,0,0,1,.92,4.76.57.57,0,0,0,.36.57" fill="#181720" fill-rule="evenodd"/>
    <path d="M167,151.65a.57.57,0,0,0-.3-.31.56.56,0,0,0-.74.3,4.13,4.13,0,0,1-.5.88.57.57,0,1,0,.91.68,5.25,5.25,0,0,0,.64-1.12.57.57,0,0,0,0-.43" fill="#181720" fill-rule="evenodd"/>
    <path d="M159.42,149.31a.57.57,0,0,0-.37.71,3.84,3.84,0,0,1,.14.58.57.57,0,0,0,1.12-.17,5,5,0,0,0-.18-.76.57.57,0,0,0-.71-.37" fill="#181720" fill-rule="evenodd"/>
    <path d="M158.3,146.77a11.56,11.56,0,0,0-4.1-2.64.57.57,0,1,0-.41,1.06,10.42,10.42,0,0,1,3.7,2.37.57.57,0,1,0,.81-.79" fill="#181720" fill-rule="evenodd"/>
    <path d="M146.05,149.53a2.36,2.36,0,1,1,2.4-1.51,2.05,2.05,0,0,1-2.4,1.51m2-5.3a3.46,3.46,0,1,0,1.43,4.2A3.16,3.16,0,0,0,148.08,144.23Z" fill="#181720" fill-rule="evenodd"/>
    <path d="M202.85,204.19a.62.62,0,0,0,.6.45l.17,0a.62.62,0,0,0,.43-.76l-.35-1.24a.62.62,0,1,0-1.19.34Z" fill="#181720" fill-rule="evenodd"/>
    <path d="M203.73,206.13a.62.62,0,0,0-.07.62,8.88,8.88,0,0,0,5.69,4.95.62.62,0,1,0,.35-1.19,7.64,7.64,0,0,1-4.9-4.25.62.62,0,0,0-1.07-.12" fill="#181720" fill-rule="evenodd"/>
    <path d="M229.14,186.61l-1.43-.36,1.43-1.43.89.9Zm-2.48,2.48-1.43-.36,1.46-1.46h0l1.41.35Zm-2.48,2.48-1.43-.36,1.46-1.46h0l1.41.35Zm-2.71,2.71a8.09,8.09,0,0,0-.83-.5c0-.15,0-.29,0-.44l1.11-1.11h0l1.41.35Zm2.16,5.41h-7.42a8,8,0,0,0-2.55-4.74,6.8,6.8,0,0,1,10,4.74Zm.42,1.33a.62.62,0,0,1,.3.69l-1.21,4.3a10.22,10.22,0,0,1-9.88,7.31H212a10.22,10.22,0,0,1-9.88-7.31l-1.21-4.29a.62.62,0,0,1,.3-.7.67.67,0,0,1,.33-.09h22.22A.67.67,0,0,1,224.06,201Zm-14.24,13.33a11.73,11.73,0,0,0,2.14.2h1.3a11.73,11.73,0,0,0,2.14-.2,4.77,4.77,0,0,0,.08,1.44h-5.75A4.78,4.78,0,0,0,209.82,214.35Zm9.54,5.16h-13.5a3.1,3.1,0,0,1,3-2.48h7.43A3.1,3.1,0,0,1,219.36,219.51Zm-11.09-25.4a6.8,6.8,0,0,1,6.7,5.57H201.59A6.81,6.81,0,0,1,208.28,194.11Zm4.34-6.81a6.82,6.82,0,0,1,6.75,6,8,8,0,0,0-6.75.89,8,8,0,0,0-6.75-.89A6.82,6.82,0,0,1,212.61,187.3Zm18.66-1.59a1.22,1.22,0,0,0-.37-.87L230,184a1.23,1.23,0,0,0-.88-.37,1.25,1.25,0,0,0-.89.37l-7.92,7.92a8,8,0,0,0-15.76,1.9,8,8,0,0,0-4.3,6.36,1.85,1.85,0,0,0-.61,1.91l1.21,4.3a11.33,11.33,0,0,0,7.71,7.71h-.07a3.48,3.48,0,0,1-.08,1.75,4.34,4.34,0,0,0-3.89,4.31.62.62,0,0,0,.62.62H220a.62.62,0,0,0,.62-.62,4.34,4.34,0,0,0-3.88-4.31,3.48,3.48,0,0,1-.08-1.75h-.07a11.33,11.33,0,0,0,7.71-7.71l1.21-4.3h0a1.85,1.85,0,0,0-.61-1.91,8,8,0,0,0-2.5-5.08l8.46-8.46A1.24,1.24,0,0,0,231.27,185.7Z" fill="#181720" fill-rule="evenodd"/>
    <path d="M41.43,204.58a.62.62,0,0,0-.6.16,101,101,0,0,1-7.55,6.87.62.62,0,1,0,.79,1,102.37,102.37,0,0,0,7.64-7,.62.62,0,0,0-.28-1" fill="#181720" fill-rule="evenodd"/>
    <path d="M44.95,200.86a.62.62,0,0,0-.59.19L43.2,202.3a.62.62,0,0,0,.91.85l1.17-1.26a.62.62,0,0,0-.32-1" fill="#181720" fill-rule="evenodd"/>
    <path d="M54.33,192.09c-.63,2.36-4.93,8.41-11.94,15.42S29.32,218.82,27,219.45a5,5,0,0,1-4.81-1.63,3.85,3.85,0,0,1-1.2-3.27,4.49,4.49,0,0,0,.61.32,3.88,3.88,0,0,0,1.49.31,3.46,3.46,0,0,0,.78-.1,12.21,12.21,0,0,0,.55,1.28.62.62,0,1,0,1.11-.56c-2.89-5.68-.71-13.86,5.31-19.87s14.19-8.2,19.87-5.31a.62.62,0,1,0,.57-1.11,12.75,12.75,0,0,0-3.78-1.21,2.36,2.36,0,0,1,.66-1.56,2.59,2.59,0,0,1,2.39-.61.61.61,0,0,0,.26,0,4.33,4.33,0,0,1,1.94,1.14,5,5,0,0,1,1.63,4.81M20.72,212.75l0,0c-.09-.1-.17-.21-.25-.32l-.06-.08c-.07-.1-.13-.2-.19-.31l-.06-.1a4.61,4.61,0,0,1-.2-.42,3.67,3.67,0,0,1,.55-4,3.52,3.52,0,0,0,2,1.15,3.39,3.39,0,0,0,.56,0,14.89,14.89,0,0,0,.38,5.21,2.48,2.48,0,0,1-1.42-.17,3.48,3.48,0,0,1-1-.64h0A4.12,4.12,0,0,1,20.72,212.75Zm-.09-9.39A4.18,4.18,0,0,1,22,200.85a3.47,3.47,0,0,0,1.33,1.6,3.36,3.36,0,0,0,1.2.46,20.25,20.25,0,0,0-1.33,4.52,2.19,2.19,0,0,1-.52,0,2.39,2.39,0,0,1-1.62-1.18,3.47,3.47,0,0,1-.28-.56l0-.08A4.4,4.4,0,0,1,20.63,203.37ZM22.95,199v-.06c0-.12,0-.24,0-.36a4.57,4.57,0,0,1,1.27-2.49,3.38,3.38,0,0,0,.67,1,3.57,3.57,0,0,0,2.42,1,24.43,24.43,0,0,0-2.25,3.68A2.18,2.18,0,0,1,24,201.4,2.62,2.62,0,0,1,22.95,199Zm2.24-4.87s0-.09,0-.14,0-.2.06-.3l0-.15c0-.1.06-.19.09-.29l.07-.17a4.55,4.55,0,0,1,1-1.44,4.28,4.28,0,0,1,2.39-1.24,3.74,3.74,0,0,0,.23,3.37,3.4,3.4,0,0,0,1.1,1.07l-.24.23c-.56.56-1.07,1.14-1.57,1.73a.6.6,0,0,0-.26,0,2.54,2.54,0,0,1-2.28-.6,2.27,2.27,0,0,1-.62-1.34,2.86,2.86,0,0,1,0-.29s0-.09,0-.13S25.18,194.2,25.19,194.1Zm5.15-4,0,0a4.3,4.3,0,0,1,.57-.7l.09-.08.21-.18.16-.13.19-.13.15-.1h0a4.47,4.47,0,0,1,2.22-.7,3.37,3.37,0,0,0,0,1.28,3.44,3.44,0,0,0,1,1.84,25.31,25.31,0,0,0-3.74,2.73,2.23,2.23,0,0,1-1-.84A2.74,2.74,0,0,1,30.34,190.12Zm5.05-2.46.08-.14.15-.23.08-.11.2-.23.09-.09.24-.22.11-.09.27-.19a4.51,4.51,0,0,1,1.62-.62,4.31,4.31,0,0,1,2.47.27,3.63,3.63,0,0,0,.15,2.65A21.68,21.68,0,0,0,36,190.54a2.2,2.2,0,0,1-.61-2.88Zm6.54-1.39a2.22,2.22,0,0,1,.13-.25c.72-1.24,2.6-1.66,4.31-1a4.45,4.45,0,0,1,1.06.62l-.2.18a3.56,3.56,0,0,0-1,2.29,16.61,16.61,0,0,0-4.11.23A2.45,2.45,0,0,1,41.94,186.27Zm11.65.12a4.92,4.92,0,0,0-5-1.37,5.73,5.73,0,0,0-4.21-1.53h0l-.38,0-.39.07-.44.12-.3.12-.29.13-.28.15-.28.19-.22.16a3.67,3.67,0,0,0-.43.43h0a5.56,5.56,0,0,0-3.3-.39,5.74,5.74,0,0,0-1.93.72h0l-.06,0c-.15.09-.29.19-.42.29l-.08.06a5,5,0,0,0-.45.41l-.08.09a4.52,4.52,0,0,0-.31.37l-.08.11-.14.2a5.61,5.61,0,0,0-3.38.89,5.75,5.75,0,0,0-.77.58l0,0-.21.2-.16.16-.13.15-.2.24,0,0a5.33,5.33,0,0,0-4,1.63,5.86,5.86,0,0,0-1.1,1.52h0l0,.08a5.33,5.33,0,0,0-.21.5l-.05.15a4.84,4.84,0,0,0-.13.49s0,.09,0,.14a4.52,4.52,0,0,0-.07.57c0,.09,0,.19,0,.28s0,.15,0,.23a5.86,5.86,0,0,0-2.16,3.58h0v0a5.28,5.28,0,0,0-.06.56s0,.07,0,.1a4.84,4.84,0,0,0,0,.57,5.31,5.31,0,0,0-2.31,3.6,5.74,5.74,0,0,0,.09,2.46s0,0,0,0v0l0,0a4.94,4.94,0,0,0,.23.62l0,.11a4.8,4.8,0,0,0-1,5.5h0c.07.18.16.36.25.53l.08.13c.07.13.14.25.22.37l.1.13.26.34.09.11.11.13a4.92,4.92,0,0,0,1.37,5,6.56,6.56,0,0,0,4.61,2.13,5.38,5.38,0,0,0,1.4-.19c2.52-.67,8.45-4.73,16-12.26s11.59-13.46,12.26-16A6.14,6.14,0,0,0,53.59,186.39Z" fill="#181720" fill-rule="evenodd"/>
    <path d="M168.63,215.05a15.07,15.07,0,0,1-17.37,2.83A16.32,16.32,0,0,0,172,203.59a.64.64,0,0,0-1.28-.11,15,15,0,0,1-21.85,12.09A16.36,16.36,0,0,0,165,211.46a16.22,16.22,0,0,0,4.78-11.54,16.39,16.39,0,0,0-.64-4.54,15,15,0,0,1,1.59,5.75.64.64,0,0,0,.64.6h0a.64.64,0,0,0,.6-.68,16.29,16.29,0,0,0-.58-3.3,15.07,15.07,0,0,1-2.85,17.31m.91-22.18c-.37-.37-.77-.73-1.17-1.06s-.68-.79-1.06-1.16-.78-.74-1.19-1.08-.7-.81-1.09-1.2a16.18,16.18,0,0,0-11.85-4.78h0c-2.35,0-6.48,3.36-9.56,6.44s-6.39,7.21-6.44,9.57h0a16.34,16.34,0,0,0,.7,5.07.64.64,0,0,0,.61.46l.19,0a.64.64,0,0,0,.43-.8,15,15,0,0,1-.65-4.08,16.33,16.33,0,0,0,15-12.94.64.64,0,0,0-1.26-.26,15.05,15.05,0,0,1-13.65,11.91c.55-1.79,2.84-4.9,5.93-8,3.54-3.54,7.11-6,8.68-6.06h0a15,15,0,0,1,10.93,25.68,15.06,15.06,0,0,1-23.94-3.6.64.64,0,1,0-1.13.6,16.33,16.33,0,0,0,2.89,3.91q.58.58,1.19,1.08c.34.42.71.82,1.08,1.2s.76.73,1.17,1.06.69.8,1.06,1.17a16.33,16.33,0,0,0,23.09-23.09Z" fill="#181720" fill-rule="evenodd"/>
    <path d="M159.75,197.33a.64.64,0,1,0,0,1.28,1,1,0,1,1-1,1,.64.64,0,1,0-1.28,0,2.24,2.24,0,1,0,2.24-2.24" fill="#181720" fill-rule="evenodd"/>
    <path d="M147.36,199.75a.64.64,0,0,0,0,1.28,1,1,0,1,1-1,1,.64.64,0,1,0-1.28,0,2.24,2.24,0,1,0,2.24-2.24" fill="#181720" fill-rule="evenodd"/>
    <path d="M154.32,205.11a.64.64,0,1,0,0,1.28,1,1,0,1,1-1,1,.64.64,0,0,0-1.28,0,2.24,2.24,0,1,0,2.24-2.24" fill="#181720" fill-rule="evenodd"/>
    <path d="M162,206a.64.64,0,1,0-.64.64A.64.64,0,0,0,162,206" fill="#181720" fill-rule="evenodd"/>
    <path d="M157.35,191.54a.64.64,0,1,0-.64.64.64.64,0,0,0,.64-.64" fill="#181720" fill-rule="evenodd"/>
    <path d="M150.23,189.08a.64.64,0,1,0-.64.64.64.64,0,0,0,.64-.64" fill="#181720" fill-rule="evenodd"/>
    <path d="M146.4,192.82a.64.64,0,1,0-.64.64.64.64,0,0,0,.64-.64" fill="#181720" fill-rule="evenodd"/>
    <path d="M148.44,207.39a.64.64,0,1,0-.64.64.64.64,0,0,0,.64-.64" fill="#181720" fill-rule="evenodd"/>
    <path d="M151.55,45.06a24.31,24.31,0,0,1-5.87-4.33,24.58,24.58,0,0,1-2-2.22,8.94,8.94,0,0,1-1.5-2.8.65.65,0,1,0-1.24.39,10.22,10.22,0,0,0,1.71,3.21,25.92,25.92,0,0,0,2.07,2.34,25.6,25.6,0,0,0,6.18,4.56.65.65,0,1,0,.61-1.15" fill="#181720" fill-rule="evenodd"/>
    <path d="M171.12,44.24a24.27,24.27,0,0,1-10.62-14,10,10,0,0,0-4.74-6,.65.65,0,0,0-.64,1.13,8.76,8.76,0,0,1,4.13,5.23,25.56,25.56,0,0,0,11.19,14.75.73.73,0,0,1,.35.73.74.74,0,0,1-.52.63,24.36,24.36,0,0,1-16.9-.77.65.65,0,0,0-.51,1.2,25.66,25.66,0,0,0,17.8.81,2,2,0,0,0,.46-3.7" fill="#181720" fill-rule="evenodd"/>
    <path d="M141.91,20.23a3.39,3.39,0,0,1,1.27-1.72,9.24,9.24,0,0,0,.92,5.24q-.43.29-.83.63a11.51,11.51,0,0,1-.89-1.08,3.35,3.35,0,0,1-.47-3.07M154,22.67a10.76,10.76,0,0,0-3.92-.74h0a.65.65,0,0,0,0,1.3,9.49,9.49,0,0,1,2.16.25A4.73,4.73,0,0,0,151,25.67a5.81,5.81,0,0,0-5.37,1.81,6.38,6.38,0,0,0-1.21,2.09,5.27,5.27,0,0,0-3.63,1.72,9.61,9.61,0,0,1,1.52-3.91,9.28,9.28,0,0,1,5.36-3.84.65.65,0,0,0-.33-1.26,10.41,10.41,0,0,0-2.13.81,8.58,8.58,0,0,1-.61-5.57.65.65,0,0,0-.83-.72,4.71,4.71,0,0,0-2.45,7.27,12.9,12.9,0,0,0,1,1.21,10.86,10.86,0,0,0-2.87,8.55.65.65,0,0,0,.57.57h.08a.65.65,0,0,0,.61-.43,4.27,4.27,0,0,1,4.2-3.12.65.65,0,0,0,.64-.51c0-.17,1-4.21,5.84-3.29a.65.65,0,0,0,.77-.57,3.27,3.27,0,0,1,1.89-2.6.65.65,0,0,0,0-1.21Z" fill="#181720" fill-rule="evenodd"/>
    <path d="M171.17,85.2l1.72,6.65a1.14,1.14,0,0,1-.82,1.38l-8.31,2.13a2.84,2.84,0,0,0-5.37,1.41l-14.89,3.85a1.14,1.14,0,0,1-1.38-.82L138.7,86.61l30.77-7.95.28,1.17a2.84,2.84,0,0,0,1.42,5.37m-31.25-5.59A13.05,13.05,0,0,1,144,74.76a1,1,0,0,1,.78-.19l2.94.47a.53.53,0,0,1,.44.47,3.46,3.46,0,0,0,.4,1.22,3.41,3.41,0,0,0,6-.17.56.56,0,0,1,.59-.34L167.1,78.1l-28.54,7.37A13.36,13.36,0,0,1,139.92,79.61Zm30.34,1.24a1.14,1.14,0,0,0,.62-1.31l-.44-1.7,0,0a.57.57,0,0,0-.06-.12.39.39,0,0,0-.15-.16l0,0a.56.56,0,0,0-.19-.07h0L155.38,75.1a1.7,1.7,0,0,0-1.78,1,2.27,2.27,0,0,1-4,.12,2.33,2.33,0,0,1-.27-.82,1.66,1.66,0,0,0-1.39-1.45L145,73.45a2.17,2.17,0,0,0-1.62.39,14.19,14.19,0,0,0-4.44,5.26,14.51,14.51,0,0,0-1.47,6.78v.39a.56.56,0,0,0,0,.07L141,100.08a2.27,2.27,0,0,0,2.77,1.63l14.89-3.85a1.14,1.14,0,0,0,.85-1.17,1.7,1.7,0,0,1,3.22-.83,1.14,1.14,0,0,0,1.31.61l8.3-2.14A2.27,2.27,0,0,0,174,91.56l-1.72-6.65a1.14,1.14,0,0,0-1.17-.85,1.7,1.7,0,0,1-.84-3.22Z" fill="#181720" fill-rule="evenodd"/>
    <path d="M170.12,90.22a1.14,1.14,0,1,1-1.38-.82,1.13,1.13,0,0,1,1.38.82m-3.3.85a2.27,2.27,0,1,0,1.63-2.77A2.27,2.27,0,0,0,166.82,91.07Z" fill="#181720" fill-rule="evenodd"/>
    <path d="M152.66,93a2.27,2.27,0,1,1,1.63-2.77A2.27,2.27,0,0,1,152.66,93m-1.42-5.5a3.41,3.41,0,1,0,4.15,2.45A3.41,3.41,0,0,0,151.24,87.47Z" fill="#181720" fill-rule="evenodd"/>
    <path d="M160,87.54a1.7,1.7,0,1,1,1.22-2.07A1.7,1.7,0,0,1,160,87.54m-1.14-4.4a2.84,2.84,0,1,0,3.46,2A2.84,2.84,0,0,0,158.91,83.15Z" fill="#181720" fill-rule="evenodd"/>
    <path d="M143.14,90.15a.57.57,0,1,1,.69.41.57.57,0,0,1-.69-.41m2.2-.57a1.7,1.7,0,1,0-1.22,2.07A1.7,1.7,0,0,0,145.33,89.59Z" fill="#181720" fill-rule="evenodd"/>
    <path d="M146.63,96.87a.57.57,0,1,1,.41-.69.57.57,0,0,1-.41.69m-.57-2.2a1.7,1.7,0,1,0,2.07,1.22A1.71,1.71,0,0,0,146.06,94.67Z" fill="#181720" fill-rule="evenodd"/>
    <path d="M159.68,91.33a.59.59,0,0,0-.78.2.65.65,0,0,0-.07.21.54.54,0,0,0,.11.42.51.51,0,0,0,.37.22.53.53,0,0,0,.42-.11.65.65,0,0,0,.15-.16.58.58,0,0,0,.06-.43.48.48,0,0,0-.1-.2.65.65,0,0,0-.16-.15" fill="#181720" fill-rule="evenodd"/>
    <path d="M152.05,86.09a.56.56,0,0,0,.31-.89.59.59,0,0,0-.16-.15.57.57,0,0,0-.63,0,.53.53,0,0,0-.15.16.65.65,0,0,0-.07.21.56.56,0,0,0,.7.63" fill="#181720" fill-rule="evenodd"/>
    <path d="M166,85.43a.56.56,0,1,0-.52-.12.56.56,0,0,0,.52.12" fill="#181720" fill-rule="evenodd"/>
    <path d="M38.73,139.55l-.16,0-.52.27.27,1.28.58-.12a2.21,2.21,0,0,1,1.79.27,3.16,3.16,0,0,1,1.09,1.58c-1.6.31-5.6,1.38-7,4.48-1,2.26-.47,5.06,1.7,8.32a1.24,1.24,0,0,1-.25,1.64l-.07.06A37.23,37.23,0,0,1,32,150.56l0,0a23.17,23.17,0,0,1-1.58-4.6c.44-1.58,2.78-2.25,2.8-2.26a.59.59,0,0,0-.31-1.14h0a6.75,6.75,0,0,0-2.79,1.64,15.23,15.23,0,0,1-.05-3.22.57.57,0,0,0,0-.39,12.84,12.84,0,0,1,.73-3,8.58,8.58,0,0,1,4.62-.91.59.59,0,0,0,.24,0,.59.59,0,0,0-.06-1.16,9.22,9.22,0,0,0-4.07.49,9.41,9.41,0,0,1,1.76-2.34,3.17,3.17,0,0,1,2.54-.3.58.58,0,0,0,.31,0,.59.59,0,0,0,0-1.14,5,5,0,0,0-2.84.07,3.32,3.32,0,0,1,.21-1.18.59.59,0,0,0-1.09-.45,4.18,4.18,0,0,0-.21,2.39,12.81,12.81,0,0,0-3.12,6.34c0,.19-.07.39-.1.59a3.39,3.39,0,0,1-2.1-2.72.59.59,0,0,0-1.18.12,4.5,4.5,0,0,0,3.14,3.8,17.47,17.47,0,0,0,.34,4.73.59.59,0,0,0,0,.17,23.74,23.74,0,0,0,1.28,4.06,3,3,0,0,1-1.35-.74.59.59,0,0,0-.87.8,4.21,4.21,0,0,0,2.78,1.21,38,38,0,0,0,4,6.53,2,2,0,0,1-1.1,0h0l-.19-.07a1.65,1.65,0,0,1-.22-.11h0l-.31-.21c-4.67-3.18-7.26-5.72-8.45-10.8l-.1-.42-.43,0a2.47,2.47,0,0,1-1.8-3.91l.29-.41-.35-.36a3.58,3.58,0,0,1,1.48-6l.69-.21-.34-.63a3,3,0,0,1-.26-.66,3,3,0,0,1-.09-.53s0-.09,0-.13a3.05,3.05,0,0,1,0-.41v-.11a3.06,3.06,0,0,1,.11-.48v0a3.09,3.09,0,0,1,.49-.93l.09-.11a3,3,0,0,1,.24-.25L25,131a3,3,0,0,1,.9-.51l.52-.18-.14-.53v0a2.19,2.19,0,0,1,3.14-2.47l.5.26.28-.48a1.91,1.91,0,0,1,1.39-.93,1.94,1.94,0,0,1,1.9.92,1.83,1.83,0,0,1,.25.69l.11.65.64-.17a3.32,3.32,0,0,1,4,2.14l.13.37.39,0a4.42,4.42,0,0,1,4,3.37,4.51,4.51,0,0,1-1.71,4.59,4.1,4.1,0,0,1-2.48.87m-14,13.92-.24-.27-.35.1h0a2.87,2.87,0,0,1-2.67-.76,2.08,2.08,0,0,1-.67-1.73l.06-.46-.44-.17a5.19,5.19,0,0,1-1.8-1.18,4.09,4.09,0,0,1-1.29-3.09,2.59,2.59,0,0,1,1-1.93l.6-.46-.59-.47a5.93,5.93,0,0,1-.75-.72,4.92,4.92,0,0,1-1.3-3.45,2.55,2.55,0,0,1,.86-1.81l.43-.36-.34-.45,0,0a4.55,4.55,0,0,1-1-3.34,2,2,0,0,1,.79-1.35,2.25,2.25,0,0,1,2-.12l.78.27v-.82a2,2,0,0,1,1-1.89c.82-.37,2,.1,2.94,1.13l.21.26,0,0a4.12,4.12,0,0,0-.28.32l-.15.2-.09.14a4.15,4.15,0,0,0-.43.85l0,.07a4.2,4.2,0,0,0-.15.54l0,.13c0,.09,0,.17,0,.26s0,.18,0,.27,0,.15,0,.23,0,.26,0,.4l0,.14a4.16,4.16,0,0,0,.09.48c0,.1.06.21.1.31A4.76,4.76,0,0,0,21.24,142a3.66,3.66,0,0,0,2.49,5.31c.08.31.16.6.25.89l.09.28c.06.19.12.38.19.57l.12.31.19.49.13.31.21.45.15.3.23.44.16.28.27.44.15.24.36.51.1.14q.24.32.49.62l.15.17.38.43.22.23.35.36.25.24.36.33.27.24.38.32.29.24.41.33.3.23.46.35.28.21,0,0A11.59,11.59,0,0,1,24.7,153.47Zm19.37-19.66a5.6,5.6,0,0,0-4.64-4.23,4.51,4.51,0,0,0-4.69-2.65,3.1,3.1,0,0,0-.26-.54,3.14,3.14,0,0,0-3.08-1.48A3.1,3.1,0,0,0,29.46,126,3.37,3.37,0,0,0,25,129.54l-.16.09c-.09-.12-.18-.23-.27-.34-1.27-1.43-3-2-4.31-1.42a2.92,2.92,0,0,0-1.64,2.22,3.16,3.16,0,0,0-2.37.44,3.08,3.08,0,0,0-1.3,2.15,5.6,5.6,0,0,0,1,3.87,3.79,3.79,0,0,0-.88,2.23,6,6,0,0,0,1.59,4.32c.12.14.25.28.39.41a3.8,3.8,0,0,0-1,2.31,5.26,5.26,0,0,0,1.63,4,6.4,6.4,0,0,0,1.81,1.28,3.34,3.34,0,0,0,1,2.27,4.07,4.07,0,0,0,3.46,1.13c2.81,3,5.54,3.93,9.54,4.51h0a3.2,3.2,0,0,0,1.77,0,3.75,3.75,0,0,0,.95-.4h0a3.47,3.47,0,0,0,.67-.51,2.38,2.38,0,0,0,.4-3.13c-1.92-2.9-2.47-5.31-1.61-7.17,1.48-3.22,6.71-3.91,6.76-3.91l.61-.08-.1-.61a4.82,4.82,0,0,0-1.74-2.94l-.25-.16a5.35,5.35,0,0,0,.82-.53A5.7,5.7,0,0,0,44.07,133.81Z" fill="#181720" fill-rule="evenodd"/>
    <path d="M27.38,101.91a9.83,9.83,0,0,1-.11-1.76l-.62-.2a4.85,4.85,0,0,1-1.15-.54l-4.39,1.82a9.93,9.93,0,0,0,6.27.68m1.24.7a1.26,1.26,0,0,0,.69.49,8.66,8.66,0,0,0,6.2-.6,9.28,9.28,0,0,0-3.34-1.13.5.5,0,0,1-.24-1l3.43-1.58a8.22,8.22,0,0,0-6.51.54,1.24,1.24,0,0,0-.58,1.17C28.4,102,28.36,102.24,28.62,102.61Zm4.72-14.22A9.81,9.81,0,0,0,38,76.48l-8.15,3.37ZM17.8,84.54a.5.5,0,1,1,.7.73,9.94,9.94,0,0,0-2.91,5.44l2,1a.5.5,0,0,1-.44.91l-1.73-.83A9.73,9.73,0,0,0,20,100.6l4.67-1.93a4.64,4.64,0,0,1-1.22-3.06l-4.55-2.2a.51.51,0,0,1,.44-.91l4.23,2a4.55,4.55,0,0,1,1.35-2.3l-3.66-8.83a9.81,9.81,0,0,0-1.22.67.5.5,0,1,1-.55-.85c1.25-.8.68-.47,18.94-8a1.8,1.8,0,0,0,1-2.29,1.78,1.78,0,0,0-2.34-1l-9.18,3.8a.52.52,0,0,1-.67-.25.5.5,0,0,1,.27-.67L36.65,71a2.84,2.84,0,0,1,3.68,1.49,2.77,2.77,0,0,1,.07,1.94,2.85,2.85,0,0,1,3.26,1.69l1,2.45a.52.52,0,0,1-.25.67.5.5,0,0,1-.67-.27l-1-2.47a1.84,1.84,0,0,0-2.4-1l-1.44.6a10.82,10.82,0,0,1-5.5,13.41c-.41.2-.72.31-1.51.64a.5.5,0,1,1-.39-.93l.94-.39-3.55-8.58L22.16,83l3.57,8.62c.44-.25.52-.24,3.9-1.65a.5.5,0,0,1,.67.29.52.52,0,0,1-.3.65l-3.34,1.38a3.51,3.51,0,0,0-2,4.62,4,4,0,0,0,2.91,2.27,2.24,2.24,0,0,1,.7-.69c1.18-.73,3.75-1.78,7.74-.53a.85.85,0,0,1,.1,1.59l-2.43,1.12a18.55,18.55,0,0,1,2.52,1.06.85.85,0,0,1,0,1.54,9.78,9.78,0,0,1-7.19.8,2.28,2.28,0,0,1-1.42-1.18A10.8,10.8,0,0,1,17.8,84.54Z" fill="#181720" fill-rule="evenodd"/>
    <path d="M33.85,80.86a1,1,0,1,1,1.32.55,1,1,0,0,1-1.32-.55" fill="#181720" fill-rule="evenodd"/>
  </g>
</svg>
