<svg xmlns="http://www.w3.org/2000/svg" width="313" height="55" viewBox="0 0 313 55"><defs><linearGradient id="a" x1="1.927%" x2="98.628%" y1="50%" y2="50%"><stop offset="0%" stop-color="#EC3E00"/><stop offset="100%" stop-color="#FF8700"/></linearGradient></defs><path fill="url(#a)" fill-rule="evenodd" d="M224.271.679h12.385L213.343 36.67h-12.399c-.955-6.487-1.91-12.973-2.89-19.644-4.311 6.65-8.527 13.154-12.72 19.625h-12.327L196.306.686h12.279l2.852 19.522.165.022L224.272.679zM52.004 36.662H38.913L62.213.693H75.3l-8.07 12.476H81.38L89.477.68h13.149L79.315 36.668h-13.15l9.35-14.445h-14.15l-9.361 14.439zm126.23-22.395l-4.66 7.19H153.39l-4.56 7.037h22.421l-5.29 8.174h-35.58L153.685.692h34.927l-4.968 7.678h-21.776l-3.67 5.665h19.956l.08.232zM1.856 24.73c4.241-.213 8.452-.426 12.663-.639.064.404-.116.632-.212.882-.29.751-.552 1.506-.572 2.327-.024.99.418 1.696 1.24 2.203.572.353 1.211.528 1.86.59 3.053.297 5.846-.372 8.268-2.325.634-.512 1.148-1.13 1.468-1.887.457-1.079.159-1.966-.873-2.518-1.377-.736-2.893-1.056-4.397-1.404-2.601-.602-5.184-1.262-7.5-2.658-1.37-.826-2.431-1.91-2.726-3.563-.23-1.289.136-2.478.675-3.62 1.174-2.494 3.035-4.412 5.182-6.081 3.938-3.06 8.44-4.771 13.333-5.52A44.872 44.872 0 0 1 40.772.155c1.793.147 3.573.42 5.243 1.15 2.682 1.172 3.65 3.032 3.09 5.917-.247 1.276-.718 2.468-1.385 3.647l-12.45.587c-.105-.425.088-.68.176-.95.683-2.09.058-3.255-2.126-3.584-2.385-.36-4.69-.073-6.709 1.424-.445.33-.846.705-1.153 1.17-.627.944-.445 1.615.584 2.09 1.144.53 2.388.705 3.602.98 2.578.584 5.15 1.192 7.614 2.17.868.345 1.696.764 2.438 1.344 1.949 1.526 2.531 3.287 1.807 5.672-.77 2.54-2.317 4.602-4.164 6.438-4.6 4.572-10.165 7.298-16.51 8.482-3.851.72-7.737.805-11.632.492-2.003-.16-3.982-.48-5.87-1.244C.72 34.884-.205 32.755.037 30c.164-1.867.872-3.555 1.82-5.27zM102.583 9.436l5.66-8.741h39.696l-5.772 8.916h-13.3l-17.538 27.065h-13.09l17.511-27.04h-13.068l-.1-.2zm138.162 18.377h20.357l-5.72 8.84h-33.46L245.212.696h13.092l-17.56 27.117zM285.011.685h13.153l-23.308 35.982h-13.152L285.011.685zM71.326 45.775h2.342l3.127 6.697 3.241-6.706c.733-.036 1.39-.066 2.107.022v8.05c-.538.156-.73.165-1.514.062v-6.133l-.145-.028-3.019 6.17a4.9 4.9 0 0 1-1.5.004l-2.936-6.19-.115.013v6.16c-.566.108-1.048.076-1.588.027v-8.148zM59.018 49.27c1.61-.013 3.143.148 4.67-.145.614-.118 1.021-.463 1.035-1.121.015-.683-.483-.94-1.036-1.027-1.51-.235-3.03-.157-4.547-.054-.03.003-.058.06-.122.128v2.219zm-1.64 4.649v-8.034c.159-.187.366-.144.552-.145 1.744-.004 3.49-.025 5.233.01.725.013 1.47.08 2.12.463.7.412 1.186.975 1.19 1.854.003.883-.552 1.364-1.23 1.745-.43.243-.922.342-1.476.458 1.497.912 2.429 2.306 3.603 3.592-.7.19-1.314.071-1.956.1-.656-.735-1.356-1.44-1.962-2.216-1.16-1.489-2.722-1.413-4.39-1.259-.198 1.133.017 2.256-.135 3.376-.491.178-.976.1-1.548.056zm120.18-2.168v-5.92c.526-.14.986-.117 1.554-.02.067 2.693.06 5.384.004 8.073-.205.039-.309.073-.413.075-.386.007-.773.003-1.231.003l-5.772-6.184v6.105c-.561.13-1.022.082-1.554.046v-8.112c.555-.136 1.048-.067 1.602-.066l5.64 6.047.17-.047zm-69.935.04v-5.95c.545-.156 1.003-.122 1.515-.042v8.076c-.504.16-.995.073-1.57.075-1.857-1.981-3.748-4-5.747-6.131v6.053c-.554.155-1.038.087-1.583.062V45.87c.968-.34 1.555-.178 2.217.537 1.593 1.721 3.203 3.426 4.808 5.135.054.058.132.093.36.248zM37.77 50.84h-3.127c-.215-.381-.112-.698-.13-1.062h4.899c.14 1.016.059 1.994.053 2.982a7.887 7.887 0 0 1-3.708 1.306c-1.438.135-2.88.059-4.242-.528-1.373-.59-2.338-1.547-2.553-3.069-.236-1.67.36-3.103 1.816-3.907 2.357-1.301 4.835-1.386 7.269-.108.61.32.974.885 1.178 1.574-.403.329-.874.32-1.391.383-.445-.938-1.205-1.497-2.23-1.62-1.16-.142-2.316-.139-3.406.399-1.114.55-1.582 1.522-1.587 2.677-.004 1.135.444 2.095 1.571 2.6 1.74.778 3.471.652 5.187-.065.719-.3.462-.899.401-1.562zm195.867-2.753c-.413.253-.88.258-1.305.323-1.447-1.733-3.252-2.178-5.382-1.365-1.25.477-1.912 1.494-1.9 2.918.011 1.288.677 2.221 1.947 2.665 1.777.622 3.491.425 5.132-.387.117-.476.101-.873.012-1.318-1.034-.182-2.071.043-3.06-.136-.159-.337-.12-.63-.044-.992h4.76v3.013c-1.07.747-2.303 1.125-3.586 1.253-1.327.134-2.66.074-3.944-.394-1.839-.67-2.991-2.131-2.968-3.798.024-1.8 1.262-3.328 3.19-3.9 1.71-.508 3.427-.52 5.131.037 1.076.352 1.781 1.087 2.017 2.08zM189.22 52.99a4.079 4.079 0 0 0 1.978-.393c1.077-.512 1.632-1.402 1.687-2.551.048-1.026-.246-1.999-1.168-2.582-1.583-1-3.263-1.039-4.9-.164-1.735.928-1.962 3.473-.49 4.783.805.717 1.764.934 2.893.907zm.035 1.11c-1.551.022-2.856-.288-4.018-1.141-1.83-1.343-2.082-4.184-.49-5.792 1.95-1.97 6.355-2.072 8.471-.273 1.954 1.662 1.856 5.08-.692 6.42-1.069.562-2.202.839-3.27.786zm25.12-1.115c.78.056 1.552-.1 2.263-.5 1.046-.588 1.458-1.518 1.431-2.687-.028-1.17-.47-2.074-1.568-2.599-1.227-.585-2.485-.633-3.76-.219-1.376.447-2.068 1.341-2.122 2.675-.062 1.53.508 2.439 1.893 3.033.586.25 1.199.327 1.863.297zm.055 1.107c-1.25.05-2.372-.182-3.41-.766-2.755-1.549-2.919-5.186-.21-6.795 2.266-1.346 4.699-1.313 7.007-.048 1.51.828 2.183 2.238 1.955 3.967-.216 1.638-1.295 2.62-2.76 3.2-.84.335-1.728.517-2.582.442zM44.228 45.775h8.105c.236.327.198.649.026 1.077h-6.423c-.16.787-.135 1.477-.02 2.288h5.95c.225.42.14.73.117 1.154H45.92c-.144.883-.085 1.657-.044 2.526h6.694c.272.384.196.696.142 1.078h-8.483v-8.123zm94.135 3.362c.163.448.121.74.061 1.16h-6.084v2.511h6.644c.202.408.125.722.104 1.096h-8.384v-8.12h8.057c.155.334.118.644.017 1.067h-6.427c-.128.782-.061 1.456-.055 2.286h6.067zm20.117-.093h5.467c.186-1.083-.012-2.139.126-3.202.5-.199.998-.081 1.543-.073v8.122c-.52.114-1 .1-1.572.002v-3.599h-5.61v3.527c-.592.23-1.096.142-1.673.09v-8.1a3.993 3.993 0 0 1 1.583-.004c.181 1.052-.03 2.13.136 3.237zm-65.667 1.43l-1.76-3.429-1.699 3.428h3.459zM85.8 53.936l4.365-8.163a8.39 8.39 0 0 1 1.766.01l4.609 8.11c-.683.113-1.252.08-1.862.034l-1.298-2.376h-4.583l-1.207 2.354c-.554.109-1.084.052-1.79.031zm67.375-5.891c-.509.214-1.001.238-1.53.31-.97-1.78-2.592-1.834-4.3-1.493-1.658.33-2.419 1.544-2.292 3.487.092 1.39 1.228 2.5 2.733 2.614.9.068 1.807.1 2.647-.353.638-.346 1.03-.895 1.321-1.562.544-.053 1.042.104 1.585.259-.235 1.01-.852 1.71-1.663 2.087-2.25 1.05-4.567 1.154-6.69-.268-2.523-1.69-2.232-5.488.5-6.803 2.032-.98 4.144-1.072 6.203.01.702.368 1.205.939 1.486 1.712zm83.904-2.39c.668-.117 1.22-.014 1.83-.018 1.06 1.242 2.13 2.498 3.233 3.795l3.489-3.564c.609-.004 1.179-.036 1.758.087-.05.301-.275.416-.436.572-1.261 1.235-2.523 2.47-3.798 3.69-.26.25-.337.526-.343.864-.018.923-.054 1.846-.084 2.785-.556.177-1.054.093-1.653.004.029-.938.04-1.857.093-2.774.025-.415-.079-.742-.358-1.054-.948-1.057-1.878-2.13-2.814-3.2-.308-.35-.639-.686-.917-1.188zm-110.68.136c.128.346.107.64.012 1.043h-3.542v7.024c-.603.158-1.087.12-1.679.049-.164-2.305.027-4.62-.109-6.976-1.189-.178-2.351.013-3.489-.116-.165-.343-.126-.654-.04-1.024h8.847zm72.612 8.111v-8.107a4.392 4.392 0 0 1 1.575.011v6.995h5.412c.228.41.164.724.106 1.101h-7.093zM307.677 1.446a4.157 4.157 0 0 0-4.152 4.153 4.157 4.157 0 0 0 4.152 4.152 4.157 4.157 0 0 0 4.152-4.152 4.157 4.157 0 0 0-4.152-4.153zm0 9.055a4.908 4.908 0 0 1-4.903-4.902c0-2.704 2.2-4.903 4.903-4.903 2.703 0 4.903 2.2 4.903 4.903 0 2.703-2.2 4.902-4.903 4.902zm.871-6.198c-.186-.153-.46-.23-.82-.23h-.965v1.773h.966c.36 0 .633-.077.82-.232.186-.154.279-.373.279-.657 0-.284-.093-.502-.28-.654zm.299 3.52l-.909-1.303a1.7 1.7 0 0 1-.171.006h-1.004v1.296h-.826V3.375h1.83c.385 0 .721.064 1.007.19.286.128.505.31.657.547.153.237.23.519.23.845 0 .335-.082.623-.246.864a1.455 1.455 0 0 1-.702.54l1.023 1.461h-.89z" transform="translate(.11 .272)"/></svg>