<svg xmlns="http://www.w3.org/2000/svg" viewBox="0 0 50 38.6"><path d="M50 14.1v4h-2.8v6.1h-7.6v-6.1h-2.8v-4H50L50 14.1zM24.5 0C11.9 0 0 5.3 0 19.3c0 13.3 11.4 19.3 24.5 19.3 7.2 0 13.7-1.9 18.7-4.9v-8.6c-2.6 2.4-6.4 3.6-10.8 3.6 -6.2 0-11.6-2.9-11.6-9.5 0-6.9 5.6-9.5 11.6-9.5 4.4 0 8.4 1.3 10.8 3.5V4.9C38.2 1.9 31.6 0 24.5 0L24.5 0zM11.6 8.5c3.9 0 7 3.1 7 7 0 3.9-3.1 7-7 7 -0.5 0-0.9 0-1.3-0.1v-4c0.4 0.2 0.8 0.3 1.3 0.3 1.7 0 3.1-1.4 3.1-3.1 0-1.7-1.4-3.1-3.1-3.1 -1.7 0-3.1 1.4-3.1 3.1H8.5v6.3 8.6c-1.6-0.5-2.9-1.6-3.8-3.3V15.7c0-0.1 0-0.1 0-0.2C4.6 11.7 7.8 8.5 11.6 8.5L11.6 8.5z" fill="#827d78"></path></svg>