<svg xmlns="http://www.w3.org/2000/svg" viewBox="0 0 70 28"><path d="M60.43 25.98c4.17 0 7.55-3.39 7.55-7.57V9.59c0-4.18-3.38-7.57-7.55-7.57H9.57c-4.17 0-7.55 3.39-7.55 7.57v8.83c0 4.18 3.38 7.57 7.55 7.57H60.43M60.43 28H9.57C4.29 28 0 23.7 0 18.41V9.59C0 4.3 4.29 0 9.57 0h50.86C65.71 0 70 4.3 70 9.59v8.83C70 23.7 65.71 28 60.43 28L60.43 28 60.43 28zM12.29 10.62v10.31H7.47V7.17h10.7v3.45H12.29L12.29 10.62zM26.49 21.12c-4.96 0-7.47-3.25-7.47-7.06 0-3.65 2.36-7.06 7.47-7.06 5.18 0 7.47 3.51 7.47 7.06C33.96 17.57 31.72 21.12 26.49 21.12L26.49 21.12zM26.49 11.03c-1.65 0-2.66 1.17-2.66 3.03s1.01 3.03 2.66 3.03c1.63 0 2.66-1.17 2.66-3.03S28.12 11.03 26.49 11.03L26.49 11.03zM44.22 17.45c1.39 0 2.52-0.34 4.07-1.21v3.67c-1.43 0.81-3.22 1.21-5.12 1.21 -5.74 0-7.72-3.85-7.72-7 0-4.02 2.92-7.12 7.96-7.12 1.81 0 3.42 0.32 4.75 0.93v4.02c-1.39-0.89-2.6-1.27-3.99-1.27 -2.42 0-3.91 1.29-3.91 3.39C40.28 16.11 41.81 17.45 44.22 17.45L44.22 17.45zM58.87 10.62v10.31h-4.81V10.62h-4.29v-3.45h13.4v3.45H58.87L58.87 10.62z" fill="#827d78"></path></svg>