<svg xmlns="http://www.w3.org/2000/svg" viewBox="0 0 200 83"><path d="M199.4 71.14H0v-2.15h199.4V71.14zM98.84 37.73c-1.62 0-2.93 1.31-2.93 2.93s1.31 2.93 2.93 2.93 2.93-1.31 2.93-2.93S100.46 37.73 98.84 37.73zM177.89 41.51h-31.67v-4.7l-3.26 1.58 -3.26-1.58v4.7h-7.04v-4.7l-3.26 1.58 -3.26-1.58v4.7h-7.04v-4.7l-3.26 1.58 -3.26-1.58v4.7h-7.15V29.17L104.07 31.25v-9.3l-1.84 2.25L98.85 3.64l-3.39 20.57 -1.84-2.25v9.3l-1.36-2.08v12.34h-8.07v-4.7l-3.26 1.58 -3.26-1.58v4.7h-7.04v-4.7l-3.26 1.58 -3.26-1.58v4.7h-7.04v-4.7l-3.26 1.58 -3.26-1.58v4.7H23.47v2.15h29.25v-3.41l1.11 0.54 1.11-0.54v3.42h11.34v-3.41l1.11 0.54L68.5 40.27v3.42h11.34v-3.41l1.11 0.54 1.11-0.54v3.42h12.37v-7.27l1.36 2.08V27.98L96.83 29.25l2.04-12.39L100.91 29.25l1.04-1.27v10.49l1.36-2.08v7.27h11.45V40.25l1.11 0.54L116.98 40.25v3.42h11.34v-3.41l1.11 0.54 1.11-0.54v3.42h11.34v-3.41l1.11 0.54 1.11-0.54v3.42h33.82v-2.18H177.89zM98.84 0L98.16 1.38 96.64 1.6l1.1 1.07 -0.26 1.51 1.36-0.71 1.36 0.71 -0.26-1.51 1.1-1.07 -1.52-0.22L98.84 0 98.84 0z" fill="#960F19"></path><path d="M0.45 81.99V76.5h2.89c1.04 0 1.58 0.67 1.58 1.4 0 0.69-0.43 1.15-0.94 1.26C4.56 79.25 5.03 79.82 5.03 80.51c0 0.82-0.55 1.48-1.6 1.48C3.43 81.99 0.45 81.99 0.45 81.99zM3.72 78.1C3.72 77.75 3.47 77.5 3.08 77.5H1.62v1.19h1.46C3.48 78.7 3.72 78.45 3.72 78.1zM3.83 80.34c0-0.35-0.25-0.64-0.71-0.64H1.62v1.28h1.5C3.57 80.97 3.83 80.74 3.83 80.34zM11.19 76.5v1.95h1.4c1.18 0 1.84 0.82 1.84 1.77 0 0.96-0.65 1.77-1.84 1.77h-2.57v-5.49C10.02 76.5 11.19 76.5 11.19 76.5zM11.19 79.48v1.48h1.24c0.46 0 0.81-0.28 0.81-0.74 0-0.45-0.34-0.74-0.81-0.74C12.43 79.48 11.19 79.48 11.19 79.48zM14.89 81.99V76.5h1.18v5.49H14.89zM21.01 79.25c0-1.69 1.28-2.84 2.92-2.84 1.21 0 1.91 0.66 2.29 1.34l-1 0.49c-0.23-0.44-0.72-0.8-1.29-0.8 -0.99 0-1.72 0.77-1.72 1.8 0 1.04 0.72 1.8 1.72 1.8 0.57 0 1.06-0.35 1.29-0.8l1 0.49c-0.39 0.68-1.09 1.35-2.29 1.35C22.28 82.09 21.01 80.93 21.01 79.25zM30.77 79.25c0-1.66 1.21-2.84 2.86-2.84C35.29 76.41 36.5 77.6 36.5 79.25c0 1.65-1.21 2.84-2.87 2.84C31.98 82.09 30.77 80.9 30.77 79.25zM35.31 79.25c0-1.03-0.66-1.8-1.67-1.8S31.98 78.22 31.98 79.25c0 1.02 0.65 1.8 1.66 1.8S35.31 80.27 35.31 79.25zM44.71 81.99l-1.66-2.2 -0.43 0.51v1.69h-1.17v-5.49h1.17v2.45l1.94-2.45h1.44l-2.18 2.58 2.33 2.91h-1.44V81.99zM50.15 79.25c0-1.66 1.21-2.84 2.86-2.84 1.66 0 2.87 1.19 2.87 2.84 0 1.65-1.21 2.84-2.87 2.84C51.36 82.09 50.15 80.9 50.15 79.25zM54.68 79.25c0-1.03-0.66-1.8-1.67-1.8S51.35 78.22 51.35 79.25c0 1.02 0.65 1.8 1.66 1.8S54.68 80.27 54.68 79.25zM64.58 81.99v-4.46h-2.59v4.46h-1.17V76.5H65.75v5.49H64.58zM70.95 81.99V76.5h2.57c1.19 0 1.84 0.81 1.84 1.77 0 0.95-0.66 1.77-1.84 1.77h-1.4v1.95C72.12 81.99 70.95 81.99 70.95 81.99zM74.17 78.27c0-0.46-0.35-0.74-0.81-0.74h-1.24v1.48h1.24C73.82 79.01 74.17 78.72 74.17 78.27zM79.94 79.25c0-1.66 1.21-2.84 2.86-2.84 1.66 0 2.87 1.19 2.87 2.84 0 1.65-1.21 2.84-2.87 2.84C81.15 82.09 79.94 80.9 79.94 79.25zM84.47 79.25c0-1.03-0.66-1.8-1.67-1.8 -1.01 0-1.66 0.77-1.66 1.8 0 1.02 0.65 1.8 1.66 1.8C83.81 81.05 84.47 80.27 84.47 79.25zM91.45 78.04c0 0.72 0.37 1 1 1 0.39 0 0.76-0.07 1.04-0.18v-2.35h1.17V82h-1.17v-2.12c-0.35 0.11-0.77 0.18-1.18 0.18 -1.4 0-2.04-0.81-2.04-2.02V76.5h1.18V78.04zM103.63 81.99v-2.3h-2.59v2.3h-1.17V76.5h1.17v2.16h2.59V76.5h1.18v5.49H103.63zM113.79 81.99l-0.34-0.93h-2.35l-0.34 0.93h-1.33L111.55 76.5h1.46l2.12 5.49H113.79zM112.27 77.67l-0.85 2.36h1.71L112.27 77.67zM119.51 81.99l1.23-2.09c-0.59-0.14-1.2-0.66-1.2-1.63 0-1.02 0.7-1.77 1.84-1.77h2.57v5.49h-1.17v-1.95h-0.85l-1.09 1.95C120.84 81.99 119.51 81.99 119.51 81.99zM122.78 79.01v-1.48h-1.22c-0.47 0-0.82 0.28-0.82 0.74s0.35 0.74 0.82 0.74C121.56 79.01 122.78 79.01 122.78 79.01zM136.64 81.99v-4.46h-1.6V76.5h4.38v1.03h-1.6v4.46H136.64zM144.28 81.99V76.5h3.88v1.03h-2.71v1.16h2.66v1.03h-2.66v1.24h2.71v1.03H144.28zM158.04 81.99v-4.46h-2.59v4.46h-1.17V76.5h4.93v5.49H158.04zM164.08 81.05c0.55 0 0.87-0.3 1.04-1.74l0.32-2.81h3.9v5.49h-1.17v-4.46H166.5l-0.21 1.86c-0.26 2.28-1.09 2.7-2.2 2.7v-1.04H164.08zM174.54 81.99V76.5h1.17v3.55L178.25 76.5h1.2v5.49h-1.17v-3.68l-2.61 3.68H174.54zM188.92 81.99h-4.26V76.5h1.17v4.46h2.59V76.5h1.18v4.46h0.49V83h-1.17V81.99zM198.67 81.99l-0.34-0.93h-2.35l-0.34 0.93h-1.33L196.43 76.5h1.46L200 81.99H198.67zM197.15 77.67l-0.85 2.36h1.71L197.15 77.67zM6.25 54.1l0.26 0.34L13.25 63.36h5.06L9.15 51.91l-0.17-0.22 0.18-0.21 8.51-10.05h-5.03l-7.89 9.98 -0.61 0.76v-0.98 -9.76H0v21.94h4.13v-6.61 -0.12L4.21 56.55l1.76-2.1L6.25 54.1zM23.47 63.7V50.11h6.35c2.95 0 4.56 2 4.56 4.38 0 2.36-1.63 4.38-4.56 4.38h-3.46v4.83C26.36 63.7 23.47 63.7 23.47 63.7zM31.43 54.49c0-1.14-0.86-1.83-2-1.83h-3.07v3.67h3.08C30.57 56.32 31.43 55.61 31.43 54.49zM40.25 63.7V50.11h9.61v2.55h-6.72v2.87h6.58v2.55h-6.58v3.08h6.72v2.55H40.25V63.7zM68 63.7v-9.51l-3.83 9.51h-1.26l-3.83-9.51v9.51h-2.89v-13.59h4.05l3.3 8.21 3.3-8.21h4.07v13.59H68zM76.86 61.38c1.36 0 2.16-0.73 2.59-4.32l0.79-6.95h9.65v13.59h-2.91V52.66h-4.13l-0.53 4.6c-0.65 5.64-2.69 6.68-5.46 6.68V61.38zM96.63 63.7V50.11h9.61v2.55h-6.72v2.87h6.58v2.55h-6.58v3.08h6.72v2.55h-9.61V63.7zM112.57 63.7V50.11h7.15c2.59 0 3.91 1.65 3.91 3.47 0 1.71-1.06 2.85-2.34 3.12 1.45 0.22 2.61 1.63 2.61 3.34 0 2.04-1.36 3.67-3.95 3.67h-7.38V63.7zM120.67 54.08c0-0.85-0.61-1.49-1.59-1.49h-3.63v2.95h3.63C120.06 55.55 120.67 54.94 120.67 54.08zM120.94 59.62c0-0.86-0.61-1.59-1.75-1.59h-3.73v3.16h3.73C120.28 61.19 120.94 60.6 120.94 59.62zM129.49 56.91c0-4.18 3.16-7.03 7.23-7.03 2.99 0 4.72 1.63 5.68 3.32l-2.48 1.22c-0.57-1.1-1.79-1.98-3.2-1.98 -2.46 0-4.26 1.9-4.26 4.46 0 2.57 1.79 4.46 4.26 4.46 1.41 0 2.63-0.86 3.2-1.98l2.48 1.2c-0.98 1.69-2.69 3.34-5.68 3.34C132.65 63.94 129.49 61.09 129.49 56.91zM156.26 63.7l-4.11-5.44 -1.06 1.26v4.18h-2.89V50.11h2.89v6.07l4.81-6.07h3.56l-5.4 6.38 5.76 7.21H156.26zM174.59 63.7L173.75 61.4h-5.82l-0.86 2.3h-3.3l5.25-13.59h3.62l5.23 13.59H174.59zM170.84 53l-2.12 5.85h4.24L170.84 53zM195.35 63.36h4.04V41.85h-10.04c-4.25 0-7.11 2.74-7.11 6.81 0 3.81 2.37 5.73 4.59 6.26l0.45 0.11 -0.23 0.4 -4.69 7.94h4.63l4.29-7.71 0.1-0.17h0.2H195h0.34v0.34 7.53H195.35zM195.01 51.99h-4.95c-2.16 0-3.67-1.37-3.67-3.33s1.51-3.33 3.67-3.33h4.95 0.34v0.34 5.99 0.34h-0.34V51.99z" fill="#140a00"></path></svg>