<svg xmlns="http://www.w3.org/2000/svg" viewBox="0 0 150 72"><path d="M129.158 14.125l-21.543 0.081c-0.219 0.002-0.42 0.116-0.527 0.303 -0.11 0.189-0.112 0.421-0.005 0.61l19.303 34.099 -7.317 0.042L95.958 7.941l36.695-0.114L129.158 14.125 129.158 14.125zM127.423 48.566l-18.771-33.15 7.17-0.024 10.722 19.597c0.107 0.197 0.313 0.318 0.538 0.318 0.223 0 0.429-0.121 0.535-0.318l18.771-34.277L150 7.164 127.423 48.566 127.423 48.566zM127.078 33.415l-3.606-6.59L134.25 7.504c0.105-0.189 0.099-0.421-0.007-0.609 -0.111-0.186-0.311-0.302-0.53-0.302L95.917 6.697l3.428-6.697 46.002 0.061L127.078 33.415 127.078 33.415z" fill="#7d050f"/><path d="M11.669 43.176v-9.052H4.65v9.052H0.569V22.16h4.081v8.169h7.019V22.16h4.079v21.016h-4.079V43.176zM30.839 43.176h-8.363l-3.836-3.499V25.659l3.836-3.499h8.363l3.836 3.499v14.018L30.839 43.176 30.839 43.176zM30.596 27.237l-1.379-1.282h-5.119l-1.379 1.282v10.889l1.377 1.256h5.121l1.379-1.281V27.237H30.596zM52.746 39.637l-3.536 3.539H37.567V22.16h11.616l2.965 2.968v5.829l-1.627 1.283 2.226 1.741v5.656H52.746zM48.069 26.602l-0.646-0.647h-5.775v4.402h5.548l0.873-0.677V26.602L48.069 26.602zM48.667 35.401l-1.612-1.247h-5.407v5.227h5.83l1.19-1.186v-2.794H48.667zM72.66 43.176V22.16h4.081v21.016h-4.081V43.176zM66.998 43.176H55.355V22.16h4.079v7.344h7.564l3.507 3.569v6.535L66.998 43.176 66.998 43.176zM66.425 34.571l-1.27-1.272h-5.721v6.082h5.721l1.27-1.272v-3.538H66.425zM93.616 39.381v3.795H79.917V22.16h13.699v3.795h-9.62v4.374h8.423v3.795h-8.423v5.257H93.616L93.616 39.381zM17.904 68.727h-5.145v3.273H8.677v-3.273H3.536L0 65.188v-9.955l3.536-3.538H8.677v-3.275h4.081v3.275h5.145L21.441 55.233v9.955L17.904 68.727 17.904 68.727zM8.677 55.49H5.322l-1.243 1.245v6.952l1.243 1.245h3.356v-9.442H8.677zM17.36 56.735l-1.243-1.245h-3.359v9.442h3.359l1.243-1.245V56.735L17.36 56.735zM35.962 71.288h-8.363l-3.836-3.499V53.771l3.836-3.499h8.363l3.836 3.499v14.018L35.962 71.288 35.962 71.288zM35.719 55.349l-1.379-1.28h-5.119l-1.379 1.28v10.889l1.377 1.256h5.121l1.379-1.282V55.349L35.719 55.349zM54.329 64.257h-7.56v7.031h-4.079V50.272h11.639l3.544 3.508v6.971L54.329 64.257 54.329 64.257zM53.792 55.308l-1.217-1.239H46.769v6.393h5.806l1.217-1.241V55.308L53.792 55.308zM76.614 71.288v-12.821l-4.657 8.237H68.927l-4.657-8.23 0.004 12.814h-4.08V50.272h3.879l6.368 11.231 0.024-0.064 6.347-11.166h3.884v21.016h-4.082V71.288zM101.176 71.288V50.272h4.081v21.016H101.176L101.176 71.288zM95.514 71.288H83.869V50.272h4.081v7.344h7.564l3.507 3.569v6.535L95.514 71.288 95.514 71.288zM94.941 62.683l-1.272-1.272h-5.719v6.082h5.719l1.272-1.272V62.683L94.941 62.683z" fill="#140a00"/></svg>