<?xml version="1.0" encoding="UTF-8"?> <svg xmlns="http://www.w3.org/2000/svg" viewBox="0 0 464 464"> <path d="m424 72h-384c-17.7 0-32 14.3-32 32v224c0 17.7 14.3 32 32 32h384c17.7 0 32-14.3 32-32v-224c0-17.7-14.3-32-32-32zm0 224c-17.7 0-32 14.3-32 32h-320c0-17.7-14.3-32-32-32v-160c17.7 0 32-14.3 32-32h320c0 17.7 14.3 32 32 32z" fill="#96b841"></path> <g fill="#342a1f"> <path d="m424 32h-384c-22.1 0-40 17.9-40 40v224c0 22.1 17.9 40 40 40h384c22.1 0 40-17.9 40-40v-224c0-22.1-17.9-40-40-40zm24 264c0 13.2-10.8 24-24 24h-384c-13.2 0-24-10.8-24-24v-224c0-13.2 10.8-24 24-24h384c13.2 0 24 10.8 24 24z"></path> <path d="m424 96c-13.2 0-24-10.8-24-24 0-4.4-3.6-8-8-8h-320c-4.4 0-8 3.6-8 8 0 13.2-10.8 24-24 24-4.4 0-8 3.6-8 8v160c0 4.4 3.6 8 8 8 13.2 0 24 10.8 24 24 0 4.4 3.6 8 8 8h320c4.4 0 8-3.6 8-8 0-13.2 10.8-24 24-24 4.4 0 8-3.6 8-8v-160c0-4.4-3.6-8-8-8zm-8 160.8c-15.6 3.2-28 15.5-31.2 31.2h-305.6c-3.2-15.6-15.6-28-31.2-31.2v-145.6c15.6-3.2 28-15.6 31.2-31.2h305.6c3.2 15.6 15.5 28 31.2 31.2z"></path> <path d="m232 112c-39.7 0-72 32.3-72 72s32.3 72 72 72 72-32.3 72-72-32.3-72-72-72zm0 128c-30.9 0-56-25.1-56-56s25.1-56 56-56 56 25.1 56 56-25.1 56-56 56z"></path> <path d="m344.8 159.5c-13.4 0-24.2 10.9-24.2 24.2s10.9 24.2 24.2 24.2 24.2-10.9 24.2-24.2-10.9-24.2-24.2-24.2zm0 32.5c-4.5 0-8.2-3.7-8.2-8.2s3.7-8.2 8.2-8.2 8.2 3.7 8.2 8.2-3.7 8.2-8.2 8.2z"></path> <path d="m120 160c-13.2 0-24 10.8-24 24s10.8 24 24 24 24-10.8 24-24-10.8-24-24-24zm0 32c-4.4 0-8-3.6-8-8s3.6-8 8-8 8 3.6 8 8-3.6 8-8 8z"></path> </g> </svg> 