<svg viewBox="0 0 82 82" xmlns="http://www.w3.org/2000/svg"><path d="m82 41c0 1.74-3.52 3.23-3.73 4.91s2.78 4.06 2.34 5.7-4.23 2.2-4.88 3.78 1.64 4.64.78 6.11-4.65 1-5.69 2.38.38 4.9-.82 6.12-4.75-.22-6.11.83-.89 4.82-2.39 5.68-4.52-1.44-6.11-.78-2.11 4.44-3.78 4.88-4-2.57-5.7-2.34-3.17 3.73-4.91 3.73-3.23-3.52-4.91-3.73-4.06 2.78-5.7 2.34-2.2-4.23-3.78-4.88-4.64 1.64-6.11.78-1-4.65-2.38-5.69-4.9.38-6.12-.82.22-4.75-.83-6.11-4.82-.89-5.68-2.39 1.44-4.52.78-6.11-4.44-2.11-4.88-3.78 2.57-4 2.34-5.7-3.73-3.17-3.73-4.91 3.52-3.23 3.73-4.91-2.73-4.09-2.34-5.7 4.23-2.2 4.88-3.78-1.64-4.61-.78-6.11 4.65-1 5.69-2.38-.38-4.9.82-6.12 4.75.22 6.11-.83.89-4.82 2.39-5.68 4.52 1.44 6.11.78 2.11-4.44 3.78-4.88 4 2.57 5.7 2.34 3.17-3.73 4.91-3.73 3.23 3.52 4.91 3.73 4.09-2.73 5.7-2.34 2.2 4.23 3.78 4.88 4.61-1.64 6.11-.78 1 4.65 2.38 5.69 4.9-.38 6.11.83-.22 4.75.83 6.11 4.83.89 5.69 2.38-1.44 4.52-.78 6.11 4.44 2.11 4.88 3.78-2.57 4-2.34 5.7 3.73 3.17 3.73 4.91z" fill="#ffd900"/></svg>