<?xml version="1.0" encoding="UTF-8"?> <svg xmlns="http://www.w3.org/2000/svg" viewBox="0 0 464 464"> <path d="m60.7 204.5c-6.3 6.3-6.3 16.5 0 22.8l11.1 11.1c4.6 4.6 6 11.6 3.5 17.6l-6 14.5c-3.4 8.2.5 17.7 8.7 21.1l15.5 6.2c6 2.5 10.5 8.4 10.5 14.9v16.3c0 8.9 6 15 15 15h15.7c6.5 0 12.4 4.5 14.9 10.6l6 14.8c3.4 8.2 12.8 12.3 21.1 8.9l15-6.1c6-2.5 13-1.1 17.6 3.6l11.4 11.5c6.3 6.3 16.5 6.3 22.8 0l11.1-11.1c4.6-4.6 11.6-6 17.6-3.5l14.5 6c8.2 3.4 17.7-.5 21.1-8.7l6.2-15.5c2.5-6 8.4-10.5 14.9-10.5h16.1c8.9 0 15-6.1 15-15v-15.7c0-6.5 4.5-12.4 10.6-14.9l14.8-6c8.2-3.4 12.3-12.8 8.9-21.1l-6.1-15c-2.5-6-1.1-13 3.6-17.6l11.5-11.4c6.3-6.3 6.3-16.5 0-22.8l-11.1-11.1c-4.6-4.6-6-11.6-3.5-17.6l6-14.5c3.4-8.2-.5-17.7-8.7-21.1l-15.5-6.2c-6-2.5-10.5-8.4-10.5-14.9v-16.2c0-8.9-6-15-15-15h-15.7c-6.5 0-12.4-4.5-14.9-10.6l-6-14.8c-3.4-8.2-12.8-12.3-21.1-8.9l-15 6.1c-6 2.5-13 1.1-17.6-3.6l-11.4-11.5c-6.3-6.3-16.5-6.3-22.8 0l-11.1 11.1c-4.6 4.6-11.6 6-17.6 3.5l-14.5-6c-8.2-3.4-17.7.5-21.1 8.7l-6.2 15.5c-2.5 6-8.4 10.5-14.9 10.5h-16.2c-8.9 0-15 6-15 15v15.7c0 6.5-4.5 12.4-10.6 14.9l-14.8 6c-8.2 3.4-12.3 12.8-8.9 21.1l6.1 15c2.5 6 1.1 13-3.6 17.6zm171.3-85.4c53.5 0 96.9 43.4 96.9 96.9s-43.4 96.9-96.9 96.9-96.9-43.4-96.9-96.9 43.4-96.9 96.9-96.9z" fill="#96b841"></path> <g fill="#342a1f"> <path d="m55.1 166.9c-9.4 9.4-9.4 24.8 0 34.2l11.1 11.1c2.3 2.3 3 5.8 1.8 8.9l-6 14.5c-5.1 12.3.7 26.5 13.1 31.6l15.4 6.2c3.2 1.4 5.6 4.5 5.6 7.5v16.1c0 13.3 9.6 23 23 23h9v136c0 2.6 1.2 5 3.3 6.5s4.8 1.9 7.2 1.1l93.5-31.2 93.5 31.2c.8.3 1.7.4 2.5.4 1.7 0 3.3-.5 4.7-1.5 2.1-1.5 3.3-3.9 3.3-6.5v-136h9c13.3 0 23-9.7 23-23v-15.7c0-3 2.4-6.2 5.6-7.5l14.8-6c12.4-5.1 18.3-19.2 13.3-31.5l-6.1-15c-1.2-3-.5-6.5 1.8-8.8l11.5-11.4c9.4-9.4 9.4-24.7 0-34.2l-11.1-11.1c-2.3-2.3-3-5.8-1.8-8.9l6-14.5c2.5-6 2.5-12.5 0-18.5s-7.1-10.6-13.1-13.1l-15.4-6.2c-3.2-1.4-5.6-4.5-5.6-7.5v-16.2c0-13.3-9.7-23-23-23h-15.7c-3.1 0-6.2-2.3-7.5-5.6l-6-14.8c-5.1-12.4-19.2-18.3-31.5-13.3l-15 6.1c-3.1 1.2-6.5.5-8.9-1.8l-11.3-11.4c-9.4-9.4-24.8-9.4-34.2 0l-11.1 11.1c-2.3 2.3-5.8 3-8.9 1.8l-14.5-6c-12.3-5.1-26.5.7-31.6 13.1l-6.2 15.4c-1.4 3.2-4.5 5.6-7.5 5.6h-16.1c-13.3 0-23 9.7-23 23v15.7c0 3-2.4 6.2-5.6 7.5l-14.8 6c-12.4 5.1-18.3 19.2-13.3 31.5l6.1 15c1.2 3 .5 6.5-1.8 8.9l-11.5 11.2zm179.4 249.5c-1.6-.5-3.4-.5-5.1 0l-85.4 28.5v-114.8l4.1 10.2c5.1 12.4 19.2 18.3 31.5 13.3l15-6.1c3.1-1.2 6.5-.5 8.9 1.8l11.4 11.5c4.7 4.7 10.9 7.1 17.1 7.1s12.4-2.4 17.1-7.1l11.1-11.1c2.3-2.3 5.8-3 8.9-1.8l14.5 6c12.3 5.1 26.5-.7 31.6-13.1l4.8-12.1v116zm-156.7-249.6c6.9-6.9 9-17.2 5.3-26.2l-6.1-15c-1.7-4.1.4-8.9 4.5-10.6l14.8-6c9.3-3.8 15.6-12.8 15.6-22.3v-15.8c0-4.5 2.5-7 7-7h16.2c9.5 0 18.4-6.2 22.3-15.5l6.2-15.4c1.7-4.1 6.5-6.1 10.7-4.4l14.5 6c9.1 3.8 19.4 1.7 26.4-5.2l11.1-11.1c3.2-3.2 8.4-3.2 11.5 0l11.4 11.5c6.9 6.9 17.2 9 26.2 5.3l15-6.1c4.1-1.7 8.9.4 10.6 4.5l6 14.8c3.8 9.3 12.8 15.6 22.3 15.6h15.7c4.5 0 7 2.5 7 7v16.2c0 9.5 6.2 18.4 15.5 22.3l15.4 6.2c2 .8 3.6 2.4 4.4 4.4s.8 4.2 0 6.2l-6 14.5c-3.8 9.1-1.7 19.4 5.2 26.4l11.1 11.1c3.2 3.2 3.2 8.3 0 11.5l-11.5 11.5c-6.9 6.9-9 17.2-5.3 26.2l6.1 15c1.7 4.1-.4 8.9-4.5 10.6l-14.8 6c-9.3 3.8-15.6 12.8-15.6 22.3v15.7c0 4.5-2.5 7-7 7h-16.2c-9.5 0-18.4 6.2-22.3 15.5l-6.2 15.4c-1.7 4.1-6.5 6.1-10.7 4.4l-14.5-6c-9.1-3.8-19.4-1.7-26.4 5.2l-11.1 11.1c-3.2 3.2-8.4 3.2-11.5 0l-11.4-11.5c-4.6-4.6-10.8-7.1-17.1-7.1-3.1 0-6.2.6-9.1 1.8l-15 6.1c-4.1 1.7-8.9-.4-10.6-4.5l-6-14.8c-3.8-9.3-12.8-15.6-22.3-15.6h-15.7c-4.5 0-7-2.5-7-7v-16.2c0-9.5-6.2-18.4-15.5-22.3l-15.4-6.2c-4.1-1.7-6.1-6.5-4.4-10.7l6-14.5c3.8-9.1 1.7-19.4-5.2-26.4l-11.1-11.1c-3.2-3.2-3.2-8.4 0-11.5z"></path> <path d="m232 288.8c57.8 0 104.9-47 104.9-104.9s-47.1-104.8-104.9-104.8-104.9 47-104.9 104.9 47 104.8 104.9 104.8zm0-193.7c49 0 88.9 39.9 88.9 88.9s-39.9 88.8-88.9 88.8-88.9-39.8-88.9-88.8 39.9-88.9 88.9-88.9z"></path> <path d="m232 240c4.4 0 8-3.6 8-8s-3.6-8-8-8c-22.1 0-40-17.9-40-40 0-4.4-3.6-8-8-8s-8 3.6-8 8c0 30.8 25.1 56 56 56z"></path> <path d="m232 144c22.1 0 40 17.9 40 40 0 4.4 3.6 8 8 8s8-3.6 8-8c0-30.9-25.1-56-56-56-4.4 0-8 3.6-8 8s3.6 8 8 8z"></path> <path d="m168 384c-4.4 0-8 3.6-8 8v32c0 4.4 3.6 8 8 8s8-3.6 8-8v-32c0-4.5-3.6-8-8-8z"></path> </g> </svg> 