<?xml version="1.0" encoding="UTF-8"?> <svg xmlns="http://www.w3.org/2000/svg" viewBox="0 0 463.3 463.3"> <path d="m231.6 295.3h-32v128h160v-128h-32v-96h-96z" fill="#96b841"></path> <g fill="#342a1f"> <path d="m399.6 407.3c0-13.6-10.4-24-24-24h-8v-120c0-4.8-3.2-8-8-8h-24v-88c0-4.8-3.2-8-8-8h-96c-4.8 0-8 3.2-8 8v88h-16v-168c0-13.6-10.4-24-24-24h-8v-5.6c0-31.2-24-56.8-54.4-57.6-15.2-.8-29.6 4.8-40.8 16-10.4 9.6-16.8 24-16.8 39.2 0 4.8 3.2 8 8 8s8-3.2 8-8c0-11.2 4-20.8 12-28.8 8-7.2 18.4-11.2 28.8-11.2 21.6.8 38.4 19.2 38.4 41.6v334.4c-6.4-4.8-15.2-8-24-8-22.4 0-40 17.6-40 40s17.6 40 40 40c19.2 0 35.2-13.6 39.2-32h181.6l29.6 29.6c1.6 1.6 4 2.4 5.6 2.4s4-.8 5.6-2.4c3.2-3.2 3.2-8 0-11.2l-17.6-18.4c12-1.6 20.8-12 20.8-24zm-112-232v8c0 4.8-3.2 8-8 8s-8-3.2-8-8v-8zm-48 0h16v8c0 13.6 10.4 24 24 24s24-10.4 24-24v-8h16v80h-80zm32 96h16v40c0 4.8-3.2 8-8 8s-8-3.2-8-8zm-40 0h24v40c0 13.6 10.4 24 24 24s24-10.4 24-24v-40h48v112h-144v-112zm-96 176c-13.6 0-24-10.4-24-24s10.4-24 24-24 24 10.4 24 24-10.4 24-24 24zm240-32h-200v-336h8c4.8 0 8 3.2 8 8v304c0 4.8 3.2 8 8 8h176c4.8 0 8 3.2 8 8s-3.2 8-8 8z"></path> <circle cx="135.6" cy="423.3" r="8"></circle> </g> </svg> 