<?xml version="1.0" encoding="UTF-8"?> <svg xmlns="http://www.w3.org/2000/svg" width="200" height="42" viewBox="0 0 200 42" fill="none"> <path d="M1.05542e-05 41.3254C0.00797361 41.2095 4.72071 31.8865 10.4727 20.6076L20.9309 0.100537L22.8186 0.0175076C23.8569 -0.0281472 24.7064 0.0185753 24.7064 0.121776C24.7064 0.224765 20.4083 8.75003 15.1551 19.0668C9.90194 29.3835 5.60388 37.9011 5.60388 37.9948C5.60388 38.0885 8.38375 38.1651 11.7814 38.1651H17.9588L19.334 35.4262L20.7092 32.6872L21.6431 34.5809L22.5771 36.4745L21.3366 39.0054L20.0961 41.5362H10.0408C4.51038 41.5362 -0.00796949 41.4414 1.05542e-05 41.3255V41.3254Z" fill="#FF0D33"></path> <path d="M33.3421 40.3422C32.9637 39.6855 30.5966 35.0732 28.0819 30.0925C25.5671 25.1117 23.3591 20.8308 23.1751 20.5792C22.8936 20.1942 22.3409 21.1058 19.685 26.3342L16.5294 32.5467H14.578C13.5048 32.5467 12.6267 32.5041 12.6267 32.4521C12.6267 32.2551 22.7844 12.3205 22.8848 12.3205C23.0522 12.3205 25.5983 17.2101 31.9905 29.8077L37.9416 41.536H35.9858H34.0299L33.3421 40.3422Z" fill="#329104"></path> <path d="M40.0742 37.533C38.9241 35.3313 35.0699 27.778 31.5092 20.7481L25.0353 7.96624L26.0217 6.02427L27.008 4.08231L29.2438 8.41209C30.4734 10.7935 34.7674 19.2206 38.7859 27.139L46.0923 41.536H44.1287H42.1652L40.0742 37.533Z" fill="#329104"></path> <path d="M132.299 15.6917V6.14048H133.661H135.024L138.648 11.6119C140.641 14.6212 142.364 17.0863 142.478 17.0898C142.592 17.093 144.332 14.6313 146.345 11.6184L150.003 6.14048H151.405H152.806V15.6917V25.243H151.12H149.435V19.4841C149.435 16.3168 149.34 13.7285 149.224 13.7325C149.108 13.7367 147.844 15.5062 146.414 17.6653L143.814 21.591H142.561H141.307L138.559 17.5879L135.81 13.5848L135.734 19.4139L135.658 25.243H133.978H132.299L132.299 15.6917ZM154.257 24.9851C154.309 24.8433 156.5 20.5464 159.126 15.4366L163.902 6.14586L165.084 6.14373C166.506 6.14055 165.972 5.296 171.875 16.8862L176.132 25.2435H174.164H172.196L171.206 23.2771L170.216 21.3107H165.076H159.937L158.986 23.2771L158.035 25.2435H156.099C155.034 25.2435 154.206 25.1275 154.257 24.9857V24.9851ZM168.256 17.6615C168.256 17.2863 165.357 11.477 165.172 11.4814C165.051 11.4846 162.152 16.8946 161.842 17.6971C161.79 17.8302 163.213 17.9391 165.002 17.9391C166.958 17.9391 168.256 17.8283 168.256 17.6615ZM177.527 15.6917V6.14048H179.353H181.178V13.8658V21.591H184.128H187.078V13.8658V6.14048H188.763H190.449V13.8658V21.591H193.398H196.348V13.8658V6.14048H198.174H200V15.6917V25.243H188.763H177.527V15.6917Z" fill="#FF0D33"></path> <path d="M115.584 25.1477C113.554 24.6187 112.565 24.025 111.277 22.5611C107.861 18.6811 108.467 10.4486 112.374 7.6433C114.689 5.98065 118.708 5.41344 122.257 6.24847C125.267 6.95685 127.39 8.98582 128.263 11.9878C128.918 14.2423 128.69 18.7075 127.818 20.6884C127.029 22.4804 125.197 24.1784 123.364 24.8176C121.593 25.4348 117.373 25.6139 115.584 25.1477ZM122.473 21.3065C123.883 20.587 124.586 19.6414 125.003 17.9023C125.795 14.6033 124.737 11.3463 122.463 10.0812C121.412 9.49674 120.828 9.37997 118.955 9.38036C114.5 9.38128 112.636 11.245 112.643 15.6915C112.648 19.1065 113.868 21.0335 116.489 21.7698C118.198 22.2501 121.057 22.0287 122.473 21.3065ZM50.5727 18.5709C52.4551 14.9014 54.6808 10.6034 55.5189 9.01968L57.0427 6.14026H58.2752H59.5077L62.1548 11.267C63.6106 14.0868 65.8246 18.3848 67.0747 20.8183L69.3476 25.2428H67.3074H65.2673L64.316 23.2763L63.3647 21.3099H58.2762H53.1878L52.2365 23.2763L51.2852 25.2428H49.2177H47.1503L50.5727 18.5709ZM61.5068 17.7937C61.5068 17.7139 60.7591 16.2409 59.8452 14.5202L58.1835 11.3918L56.6146 14.5202C55.7517 16.2408 55.0457 17.7139 55.0457 17.7937C55.0457 17.8736 56.4994 17.9388 58.2762 17.9388C60.053 17.9388 61.5068 17.8736 61.5068 17.7937ZM70.7771 15.6915V6.14026L78.8535 6.13968L86.93 6.13908L86.8358 7.96565L86.7416 9.79222H80.4449H74.1481V17.5175V25.2428H72.4626H70.7771V15.6915ZM89.0368 15.6915V6.14026L95.4278 6.14132C98.9871 6.14219 102.285 6.2724 102.871 6.43518C104.2 6.8043 105.703 8.33424 106.127 9.75016C106.307 10.3496 106.451 11.6471 106.448 12.6335C106.437 15.6232 105.003 17.8359 102.661 18.4725C102.043 18.6405 99.5467 18.7787 97.1133 18.7795L92.6888 18.7806V22.0112V25.2417H90.8628H89.0368V15.6915ZM102.407 14.5383C102.791 14.1137 102.942 13.5281 102.942 12.4609C102.942 11.3938 102.791 10.8082 102.407 10.3835C101.905 9.82832 101.592 9.79222 97.2804 9.79222H92.6888V12.4609V15.1297H97.2804C101.592 15.1297 101.905 15.0936 102.407 14.5383Z" fill="#329104"></path> <path d="M51.4621 35.5772H50.7159V29.8227H48.6836V29.1599H53.4943V29.8227H51.4621V35.5772Z" fill="#262626"></path> <path d="M58.7358 35.5767H55.1584V29.1594H58.7358V29.8222H55.9046V31.8896H58.5646V32.548H55.9046V34.9095H58.7358V35.5767Z" fill="#262626"></path> <path d="M65.135 35.5767H64.2878L62.5628 32.7543L60.8071 35.5767H60.017L62.1502 32.2232L60.1618 29.1594H60.987L62.5804 31.7009L64.1869 29.1594H64.9813L62.9929 32.1968L65.135 35.5767Z" fill="#262626"></path> <path d="M71.6356 35.5767H70.8894V32.5568H67.5096V35.5767H66.7634V29.1594H67.5096V31.8896H70.8894V29.1594H71.6356V35.5767Z" fill="#262626"></path> <path d="M79.6724 32.3592C79.6724 33.3864 79.4119 34.194 78.8911 34.7822C78.3731 35.3703 77.6518 35.6644 76.7271 35.6644C75.7819 35.6644 75.0518 35.3762 74.5368 34.7997C74.0247 34.2203 73.7687 33.4039 73.7687 32.3505C73.7687 31.3058 74.0262 30.4967 74.5412 29.9231C75.0562 29.3467 75.7878 29.0584 76.7359 29.0584C77.6576 29.0584 78.3775 29.3511 78.8954 29.9363C79.4134 30.5216 79.6724 31.3292 79.6724 32.3592ZM74.5588 32.3592C74.5588 33.2283 74.7431 33.8882 75.1118 34.3388C75.4835 34.7866 76.0219 35.0104 76.7271 35.0104C77.4382 35.0104 77.9751 34.7866 78.338 34.3388C78.7009 33.8911 78.8823 33.2313 78.8823 32.3592C78.8823 31.496 78.7009 30.842 78.338 30.3972C77.9781 29.9495 77.444 29.7256 76.7359 29.7256C76.0248 29.7256 75.4835 29.951 75.1118 30.4016C74.7431 30.8493 74.5588 31.5019 74.5588 32.3592Z" fill="#262626"></path> <path d="M86.3752 35.5767H85.629V29.8222H83.544L83.408 30.8756C83.2295 32.2773 83.0715 33.303 82.9339 33.9526C82.7993 34.5993 82.6208 35.0499 82.3984 35.3045C82.176 35.5591 81.8805 35.6835 81.5118 35.6776C81.2952 35.6776 81.1006 35.641 80.928 35.5679V34.9402C81.086 35.0163 81.2513 35.0543 81.424 35.0543C81.5791 35.0543 81.7137 34.9914 81.8278 34.8656C81.9448 34.7368 82.0473 34.5159 82.1351 34.2028C82.2258 33.8868 82.3384 33.2898 82.473 32.4119C82.6106 31.5311 82.7613 30.447 82.9251 29.1594H86.3752V35.5767Z" fill="#262626"></path> <path d="M94.421 32.3592C94.421 33.3864 94.1606 34.194 93.6397 34.7822C93.1218 35.3703 92.4005 35.6644 91.4758 35.6644C90.5306 35.6644 89.8005 35.3762 89.2855 34.7997C88.7734 34.2203 88.5173 33.4039 88.5173 32.3505C88.5173 31.3058 88.7748 30.4967 89.2899 29.9231C89.8049 29.3467 90.5364 29.0584 91.4845 29.0584C92.4063 29.0584 93.1262 29.3511 93.6441 29.9363C94.162 30.5216 94.421 31.3292 94.421 32.3592ZM89.3074 32.3592C89.3074 33.2283 89.4918 33.8882 89.8605 34.3388C90.2321 34.7866 90.7705 35.0104 91.4758 35.0104C92.1868 35.0104 92.7238 34.7866 93.0867 34.3388C93.4495 33.8911 93.6309 33.2313 93.6309 32.3592C93.6309 31.496 93.4495 30.842 93.0867 30.3972C92.7267 29.9495 92.1927 29.7256 91.4845 29.7256C90.7735 29.7256 90.2321 29.951 89.8605 30.4016C89.4918 30.8493 89.3074 31.5019 89.3074 32.3592Z" fill="#262626"></path> <path d="M100.136 29.1594V29.831H97.305V35.5767H96.5588V29.1594H100.136Z" fill="#262626"></path> <path d="M101.94 29.1594H102.638V32.728C102.638 33.3864 102.617 33.9819 102.576 34.5144H102.611L106.211 29.1594H107.027V35.5767H106.325V32.0432C106.325 31.4551 106.35 30.8376 106.399 30.1909H106.36L102.756 35.5767H101.94L101.94 29.1594Z" fill="#262626"></path> <path d="M109.489 29.1594H110.187V32.728C110.187 33.3864 110.167 33.9819 110.126 34.5144H110.161L113.76 29.1594H114.577V35.5767H113.874V32.0432C113.874 31.4551 113.899 30.8376 113.949 30.1909H113.909L110.306 35.5767H109.489L109.489 29.1594Z" fill="#262626"></path> <path d="M124.857 35.5767H124.11V29.8222H120.814V35.5767H120.068V29.1594H124.857V35.5767Z" fill="#262626"></path> <path d="M131.388 31.0293C131.388 31.6789 131.166 32.1793 130.721 32.5305C130.279 32.8787 129.645 33.0528 128.82 33.0528H128.065V35.5767H127.319V29.1594H128.983C130.586 29.1594 131.388 29.7827 131.388 31.0293ZM128.065 32.4119H128.737C129.398 32.4119 129.876 32.3051 130.172 32.0915C130.468 31.8779 130.615 31.5355 130.615 31.0644C130.615 30.6401 130.476 30.3241 130.198 30.1163C129.92 29.9085 129.487 29.8047 128.899 29.8047H128.065V32.4119Z" fill="#262626"></path> <path d="M139 32.3592C139 33.3864 138.739 34.194 138.218 34.7822C137.7 35.3703 136.979 35.6644 136.054 35.6644C135.109 35.6644 134.379 35.3762 133.864 34.7997C133.352 34.2203 133.096 33.4039 133.096 32.3505C133.096 31.3058 133.353 30.4967 133.868 29.9231C134.383 29.3467 135.115 29.0584 136.063 29.0584C136.985 29.0584 137.705 29.3511 138.223 29.9363C138.741 30.5216 139 31.3292 139 32.3592ZM133.886 32.3592C133.886 33.2283 134.07 33.8882 134.439 34.3388C134.811 34.7866 135.349 35.0104 136.054 35.0104C136.765 35.0104 137.302 34.7866 137.665 34.3388C138.028 33.8911 138.209 33.2313 138.209 32.3592C138.209 31.496 138.028 30.842 137.665 30.3972C137.305 29.9495 136.771 29.7256 136.063 29.7256C135.352 29.7256 134.811 29.951 134.439 30.4016C134.07 30.8493 133.886 31.5019 133.886 32.3592Z" fill="#262626"></path> <path d="M141.146 29.1594H141.844V32.728C141.844 33.3864 141.823 33.9819 141.782 34.5144H141.817L145.417 29.1594H146.233V35.5767H145.531V32.0432C145.531 31.4551 145.556 30.8376 145.605 30.1909H145.566L141.962 35.5767H141.146L141.146 29.1594Z" fill="#262626"></path> <path d="M152.409 30.6606C152.409 31.082 152.274 31.4244 152.005 31.6877C151.739 31.9511 151.37 32.1179 150.899 32.1881V32.2232C151.434 32.2964 151.84 32.4647 152.115 32.728C152.393 32.9914 152.532 33.3352 152.532 33.7595C152.532 34.3594 152.308 34.8276 151.86 35.1641C151.412 35.4977 150.78 35.6645 149.964 35.6645C149.218 35.6645 148.606 35.5489 148.129 35.3177V34.6242C148.41 34.7588 148.713 34.8627 149.038 34.9359C149.365 35.009 149.68 35.0456 149.981 35.0456C150.561 35.0456 150.998 34.9359 151.294 34.7164C151.592 34.4969 151.742 34.1809 151.742 33.7683C151.742 33.3762 151.576 33.0792 151.246 32.8773C150.918 32.6753 150.428 32.5744 149.775 32.5744H148.818V31.9467H149.736C150.336 31.9467 150.799 31.8399 151.127 31.6263C151.458 31.4097 151.623 31.1083 151.623 30.7221C151.623 30.409 151.505 30.1588 151.268 29.9715C151.031 29.7842 150.712 29.6906 150.311 29.6906C149.989 29.6906 149.698 29.7272 149.437 29.8003C149.177 29.8735 148.875 30.0183 148.533 30.2349L148.164 29.7345C148.46 29.515 148.79 29.3497 149.156 29.2385C149.525 29.1244 149.907 29.0673 150.302 29.0673C150.96 29.0673 151.475 29.2121 151.847 29.5018C152.221 29.7886 152.409 30.1749 152.409 30.6606V30.6606Z" fill="#262626"></path> <path d="M154.621 29.1594H156.434C157.285 29.1594 157.901 29.2867 158.282 29.5413C158.662 29.7959 158.852 30.1982 158.852 30.7484C158.852 31.1288 158.745 31.4433 158.532 31.6921C158.321 31.9379 158.012 32.0974 157.606 32.1705V32.2144C158.58 32.3812 159.067 32.8932 159.067 33.7506C159.067 34.3242 158.873 34.7719 158.483 35.0938C158.097 35.4157 157.556 35.5766 156.859 35.5766H154.621V29.1594ZM155.367 31.9072H156.596C157.123 31.9072 157.502 31.8252 157.733 31.6613C157.964 31.4945 158.08 31.2151 158.08 30.823C158.08 30.4631 157.951 30.2041 157.693 30.0461C157.436 29.8851 157.026 29.8047 156.464 29.8047H155.367V31.9072ZM155.367 32.5392V34.9402H156.706C157.224 34.9402 157.613 34.8407 157.873 34.6417C158.137 34.4398 158.268 34.1252 158.268 33.698C158.268 33.3001 158.134 33.0074 157.865 32.8201C157.598 32.6329 157.192 32.5392 156.644 32.5392H155.367Z" fill="#262626"></path> <path d="M166.723 32.3592C166.723 33.3864 166.462 34.194 165.941 34.7822C165.423 35.3703 164.702 35.6644 163.777 35.6644C162.832 35.6644 162.102 35.3762 161.587 34.7997C161.075 34.2203 160.819 33.4039 160.819 32.3505C160.819 31.3058 161.076 30.4967 161.591 29.9231C162.107 29.3467 162.838 29.0584 163.786 29.0584C164.708 29.0584 165.428 29.3511 165.946 29.9363C166.464 30.5216 166.723 31.3292 166.723 32.3592ZM161.609 32.3592C161.609 33.2283 161.793 33.8882 162.162 34.3388C162.534 34.7866 163.072 35.0104 163.777 35.0104C164.488 35.0104 165.025 34.7866 165.388 34.3388C165.751 33.8911 165.933 33.2313 165.933 32.3592C165.933 31.496 165.751 30.842 165.388 30.3972C165.028 29.9495 164.494 29.7256 163.786 29.7256C163.075 29.7256 162.534 29.951 162.162 30.4016C161.793 30.8493 161.609 31.5019 161.609 32.3592Z" fill="#262626"></path> <path d="M173.921 37.249H173.21V35.5767H168.75V37.249H168.039V34.9007H168.535C168.986 34.1428 169.37 33.221 169.689 32.1354C170.011 31.0498 170.19 30.0578 170.225 29.1594H173.109V34.9007H173.921V37.249ZM172.363 34.9007V29.831H170.901C170.848 30.5391 170.671 31.3907 170.37 32.3856C170.068 33.3776 169.717 34.2159 169.316 34.9007H172.363Z" fill="#262626"></path> <path d="M178.455 29.7345C177.749 29.7345 177.192 29.97 176.782 30.4412C176.376 30.9094 176.172 31.5517 176.172 32.3681C176.172 33.2079 176.368 33.8575 176.76 34.317C177.155 34.7735 177.717 35.0017 178.446 35.0017C178.894 35.0017 179.404 34.9212 179.978 34.7603V35.4143C179.533 35.5811 178.984 35.6645 178.332 35.6645C177.387 35.6645 176.656 35.3777 176.141 34.8042C175.629 34.2306 175.373 33.4157 175.373 32.3593C175.373 31.698 175.496 31.1186 175.742 30.6211C175.991 30.1237 176.348 29.7403 176.813 29.4711C177.281 29.2019 177.831 29.0673 178.463 29.0673C179.136 29.0673 179.725 29.1902 180.228 29.436L179.912 30.0768C179.426 29.8486 178.94 29.7345 178.455 29.7345Z" fill="#262626"></path> <path d="M184.055 35.5767H183.309V29.8222H181.277V29.1594H186.088V29.8222H184.055V35.5767Z" fill="#262626"></path> <path d="M187.752 29.1594H189.565C190.416 29.1594 191.032 29.2867 191.413 29.5413C191.793 29.7959 191.983 30.1982 191.983 30.7484C191.983 31.1288 191.876 31.4433 191.663 31.6921C191.452 31.9379 191.143 32.0974 190.737 32.1705V32.2144C191.711 32.3812 192.198 32.8932 192.198 33.7506C192.198 34.3242 192.004 34.7719 191.614 35.0938C191.228 35.4157 190.687 35.5766 189.99 35.5766H187.752V29.1594ZM188.498 31.9072H189.727C190.254 31.9072 190.633 31.8252 190.864 31.6613C191.095 31.4945 191.211 31.2151 191.211 30.823C191.211 30.4631 191.082 30.2041 190.824 30.0461C190.567 29.8851 190.157 29.8047 189.595 29.8047H188.498V31.9072ZM188.498 32.5392V34.9402H189.837C190.355 34.9402 190.744 34.8407 191.004 34.6417C191.268 34.4398 191.399 34.1252 191.399 33.698C191.399 33.3001 191.265 33.0074 190.996 32.8201C190.729 32.6329 190.323 32.5392 189.775 32.5392H188.498Z" fill="#262626"></path> <path d="M198.317 35.5767L197.518 33.5356H194.946L194.156 35.5767H193.401L195.938 29.1331H196.566L199.089 35.5767H198.317ZM197.285 32.8641L196.539 30.8757C196.443 30.624 196.343 30.3153 196.241 29.9495C196.176 30.2305 196.084 30.5392 195.964 30.8757L195.209 32.8641H197.285Z" fill="#262626"></path> </svg> 