<svg xmlns="http://www.w3.org/2000/svg" viewBox="0 0 324.91 324.91"><defs><style>.cls-1{fill:#fff;}.cls-1,.cls-2{fill-rule:evenodd;}.cls-2,.cls-3{fill:#1d1d1b;}</style></defs><title>m-logo</title><g id="Слой_2" data-name="Слой 2"><g id="Слой_1-2" data-name="Слой 1"><path class="cls-1" d="M162.45,0c89.48,0,162.46,73,162.46,162.45s-73,162.46-162.46,162.46S0,251.93,0,162.45,73,0,162.45,0Z"/><path class="cls-2" d="M121.84,58.38a174.44,174.44,0,0,1,24.75-1.27c9.52,1.27,16.5,5.08,24.11,10.79-1.9-3.81-7.61-7.61-11.42-9.52,3.81,0,7.62,0,11.42-1.27h-7.61c11.42-1.9,19-9.52,32.36-7.61,3.81,1.9,9.52,1.9,9.52,1.9,7.62-5.71,15.23-11.42,22.85-15.23l3.81,13.33c-1.91,1.9-13.33,10.79-11.43,18.4v1.9c3.81,7.62,3.81,13.33,1.91,19s-5.72,11.43-5.72,17.14c-1.9-3.81-1.9-5.72,0-9.52C199.26,119.3,168.8,140.24,139,140.24c-22.85-1.9-45.7-17.13-45.7-41.88-1.9-17.13,9.52-34.27,28.56-40Z"/><path class="cls-3" d="M62.19,187.84,44.42,167.53H40v47H52V193.55L62.19,203.7h1.27L73,193.55v20.94H85.67v-47H81.23l-19,20.31Zm72.34,26.65h12.06v-1.9L125,166.9h-5.07L99,212.59v1.9h11.42l3.17-6.35H132l2.54,6.35ZM128.19,198H117.4l5.08-12.06L128.19,198Zm60.92-.63c12-7.62,8.88-29.83-9.52-29.83H158.65v47h12v-14h6.35l8.25,14h13.33v-1.9l-9.52-15.23Zm-9.52-7.62H170.7V178.32h8.89c6.34,0,6.34,11.42,0,11.42Zm46.32,14v-26h5.72V167.53H208.78v10.15h5.08v26h-5.71v10.79h23.48V203.7Zm51.41,10.79h11.42v-1.9L267.8,166.9h-5.08l-21.58,45.69v1.9H253.2l2.54-6.35h18.4l3.18,6.35Zm-7-16.5H259.55l5.71-12.06L270.34,198Z"/><path class="cls-3" d="M90.11,249.39c0,7,5.08,10.16,10.16,10.16a9.58,9.58,0,0,0,8.88-5.71,17.74,17.74,0,0,0,.63-5.72h-9.51v4.45h4.44c-1.27,1.9-2.54,1.9-4.44,1.9-3.18,0-5.08-1.9-5.08-5.08s1.9-5.71,5.08-5.71a4.27,4.27,0,0,1,3.8,2.54h5.08c-.63-4.44-5.08-7-8.88-7a10,10,0,0,0-10.16,10.15Zm38.71,2.54c5.08-3.17,3.81-12.05-4.44-12.05h-8.25v19h5.08V253.2h2.54l3.17,5.71h5.71v-.63l-3.81-6.35Zm-4.44-3.17h-3.17v-4.44h3.17a2.23,2.23,0,1,1,0,4.44Zm27.29,10.15h5.07v-.63l-8.88-19h-2.54l-8.88,19v.63h5.07l1.27-1.9h7.62l1.27,1.9Zm-2.54-6.34h-5.08l2.54-5.08,2.54,5.08Zm17.77,6.34v-4.44h3.17c9.52,0,9.52-14.59,0-14.59h-8.25v19Zm3.17-9.52H166.9v-5.07h3.17c3.17,0,3.17,5.07,0,5.07Zm29.83-9.52h-5.08v7h-5.71v-7H184v19h5.08V251.3h5.71v7.61h5.08v-19Zm13.32,14.6V244.32h2.54v-4.44h-9.52v4.44h2.54v10.15h-2.54v4.44h9.52v-4.44Zm7.62-5.08a9.89,9.89,0,0,0,9.52,10.16c4.44,0,8.88-2.54,9.51-7.62H234.8a4.23,4.23,0,0,1-4.44,3.17,5.55,5.55,0,0,1-4.45-5.71c0-3.17,1.91-5.71,4.45-5.71a4.23,4.23,0,0,1,4.44,3.18h5.07c-.63-5.08-5.07-7.62-9.51-7.62a9.89,9.89,0,0,0-9.52,10.15Zm-64.1,17.14-3.17,10.79h0l-.63-3.81-2.54-7h-5.08v.63l7,19h2.54l3.17-9.52h0l3.17,9.52h3.18l6.34-19v-.63h-5.07l-2.54,7-.64,3.81h0l-3.17-10.79Zm31.73,0H176.42v19h12.69v-4.44h-7.62V278h6.35v-4.44h-6.35V271h7v-4.44Zm21.58,5.71a5.69,5.69,0,0,0-5.71-5.71h-8.25v19H205c3.81,0,6.35-2.53,6.35-5.71,0-1.9-1.27-3.17-2.54-4.44a4.8,4.8,0,0,0,1.27-3.17ZM204.34,278c2.54,0,2.54,3.17,0,3.17h-3.81V278Zm-.64-7c1.91,0,1.91,3.17,0,3.17h-3.17V271ZM118,280.49c0-2.54,1.91-4.44,4.45-5.08a4.67,4.67,0,0,1-1.27-3.81,5.32,5.32,0,0,1,1.27-3.8,5.75,5.75,0,0,1,4.44-1.91,9.23,9.23,0,0,1,4.44,1.27,4.67,4.67,0,0,1,1.27,3.81c0,2.54-1.27,3.81-3.81,5.08l2.54,2.53c.63-1.26,1.27-1.9,1.9-3.17l3.18,1.91a13.49,13.49,0,0,1-2.54,3.8l2.54,2.54-3.18,2.54-1.9-1.9a10.71,10.71,0,0,1-6.35,1.9,9.23,9.23,0,0,1-4.44-1.27,4.8,4.8,0,0,1-2.54-4.44Zm5.72,0c0,.63,0,.63.63,1.27s.63.63,1.9.63c.64,0,1.27-.63,1.91-.63L125,278a3.31,3.31,0,0,0-1.27,2.54Zm1.9-8.89a2.35,2.35,0,0,0,.63,1.91c1.27,0,1.27-.64,1.91-.64a2.24,2.24,0,0,1,.63-1.27,2.24,2.24,0,0,0-.63-1.27c0-.63-.64-.63-1.27-.63a.62.62,0,0,0-.64.63c-.63,0-.63.64-.63,1.27Z"/></g></g></svg>